<svg width="71" height="70" viewBox="0 0 71 70" fill="none" xmlns="http://www.w3.org/2000/svg">

<path d="M23.4502 49.07V19.93C23.4502 19.6833 23.5482 19.4468 23.7226 19.2724C23.897 19.098 24.1335 19 24.3802 19H42.4408C42.6874 19.0002 42.9238 19.0983 43.098 19.2728L47.9774 24.1522C48.0641 24.2388 48.1329 24.3418 48.1797 24.4551C48.2265 24.5684 48.2505 24.6899 48.2502 24.8125V49.07C48.2502 49.1921 48.2261 49.3131 48.1794 49.4259C48.1327 49.5387 48.0642 49.6413 47.9778 49.7276C47.8914 49.814 47.7889 49.8825 47.6761 49.9292C47.5633 49.9759 47.4423 50 47.3202 50H24.3802C24.2581 50 24.1371 49.9759 24.0243 49.9292C23.9115 49.8825 23.8089 49.814 23.7226 49.7276C23.6362 49.6413 23.5677 49.5387 23.521 49.4259C23.4743 49.3131 23.4502 49.1921 23.4502 49.07Z" stroke="#283C26" stroke-width="2.4" stroke-linecap="round" stroke-linejoin="round"/>
<path d="M42.0506 19V24.27C42.0506 24.5167 42.1485 24.7532 42.3229 24.9276C42.4974 25.102 42.7339 25.2 42.9806 25.2H48.2506M33.7348 32.0432L35.3453 28.6286C35.3888 28.531 35.4597 28.4481 35.5494 28.3899C35.6391 28.3317 35.7437 28.3008 35.8506 28.3008C35.9574 28.3008 36.062 28.3317 36.1517 28.3899C36.2414 28.4481 36.3123 28.531 36.3559 28.6286L37.9679 32.0432L41.5685 32.595C42.0304 32.6648 42.2133 33.26 41.8785 33.601L39.2745 36.2562L39.8883 40.0087C39.9674 40.4907 39.4853 40.8581 39.0715 40.6302L35.8506 38.8586L32.6297 40.6302C32.2158 40.8581 31.7338 40.4907 31.8128 40.0102L32.4266 36.2562L29.8226 33.601C29.4863 33.26 29.6707 32.6648 30.1326 32.5935L33.7348 32.0432Z" stroke="#283C26" stroke-width="2.4" stroke-linecap="round" stroke-linejoin="round"/>
</svg>
