<svg width="71" height="70" viewBox="0 0 71 70" fill="none" xmlns="http://www.w3.org/2000/svg">
<path d="M18.9346 35.5C18.9346 29.7209 18.9346 26.8306 20.8868 25.0361C22.8391 23.2415 25.9791 23.24 32.2607 23.24H38.9237C45.2053 23.24 48.3469 23.24 50.2975 25.0361C52.2481 26.8322 52.2498 29.7209 52.2498 35.5C52.2498 41.279 52.2498 44.1693 50.2975 45.9639C48.3452 47.7585 45.2053 47.76 38.9237 47.76H32.2607C25.9791 47.76 22.8374 47.76 20.8868 45.9639C18.9362 44.1678 18.9346 41.279 18.9346 35.5Z" stroke="#283C26" stroke-width="2.5"/>
<path d="M32.2607 41.6299H25.5976M38.9237 41.6299H36.4251M18.9346 32.4349H52.2498" stroke="#283C26" stroke-width="2.5" stroke-linecap="round"/>
</svg>
