<svg width="70" height="70" viewBox="0 0 70 70" fill="none" xmlns="http://www.w3.org/2000/svg">
<path d="M28.3348 45.6889C29.207 45.6889 30.0436 45.3424 30.6603 44.7256C31.2771 44.1089 31.6236 43.2723 31.6236 42.4001C31.6236 41.5278 31.2771 40.6913 30.6603 40.0745C30.0436 39.4577 29.207 39.1112 28.3348 39.1112C27.4625 39.1112 26.626 39.4577 26.0092 40.0745C25.3924 40.6913 25.0459 41.5278 25.0459 42.4001C25.0459 43.2723 25.3924 44.1089 26.0092 44.7256C26.626 45.3424 27.4625 45.6889 28.3348 45.6889ZM44.7791 45.6889C45.6513 45.6889 46.4879 45.3424 47.1046 44.7256C47.7214 44.1089 48.0679 43.2723 48.0679 42.4001C48.0679 41.5278 47.7214 40.6913 47.1046 40.0745C46.4879 39.4577 45.6513 39.1112 44.7791 39.1112C43.9068 39.1112 43.0703 39.4577 42.4535 40.0745C41.8367 40.6913 41.4902 41.5278 41.4902 42.4001C41.4902 43.2723 41.8367 44.1089 42.4535 44.7256C43.0703 45.3424 43.9068 45.6889 44.7791 45.6889Z" stroke="#283C26" stroke-width="2" stroke-miterlimit="1.5" stroke-linecap="round" stroke-linejoin="round"/>
<path d="M31.7044 42.3997H39.8443V25.2976C39.8443 25.0359 39.7404 24.7849 39.5553 24.5999C39.3703 24.4149 39.1193 24.3109 38.8576 24.3109H16.8223M24.4689 42.3997H21.0978C20.9682 42.3997 20.8399 42.3741 20.7202 42.3246C20.6005 42.275 20.4917 42.2023 20.4001 42.1107C20.3085 42.0191 20.2358 41.9103 20.1862 41.7906C20.1366 41.6709 20.1111 41.5426 20.1111 41.413V33.3553" stroke="#283C26" stroke-width="2" stroke-linecap="round"/>
<path d="M18.4678 29.2444H25.0455" stroke="#283C26" stroke-width="2" stroke-linecap="round" stroke-linejoin="round"/>
<path d="M39.8447 29.2444H49.07C49.2607 29.2444 49.4473 29.2998 49.6073 29.4036C49.7672 29.5075 49.8936 29.6556 49.9711 29.8298L52.9147 36.4536C52.9707 36.5793 52.9999 36.7155 53.0002 36.8532V41.4132C53.0002 41.5427 52.9747 41.671 52.9251 41.7908C52.8755 41.9105 52.8028 42.0192 52.7112 42.1108C52.6196 42.2025 52.5108 42.2751 52.3911 42.3247C52.2714 42.3743 52.1431 42.3998 52.0135 42.3998H48.8891M39.8447 42.3998H41.4892" stroke="#283C26" stroke-width="2" stroke-linecap="round"/>
</svg>
