<svg width="70" height="70" viewBox="0 0 70 70" fill="none" xmlns="http://www.w3.org/2000/svg">
<path d="M46.6667 39.865C47.3493 40.1064 47.9404 40.5535 48.3583 41.1449C48.7762 41.7362 49.0004 42.4426 49 43.1667V44.3333C49 45.571 48.5083 46.758 47.6332 47.6332C46.758 48.5083 45.571 49 44.3333 49H25.6667C24.429 49 23.242 48.5083 22.3668 47.6332C21.4917 46.758 21 45.571 21 44.3333V31.5C20.9996 30.7759 21.2238 30.0695 21.6417 29.4782C22.0596 28.8869 22.6507 28.4397 23.3333 28.1983V24.5C23.3333 23.5717 23.7021 22.6815 24.3585 22.0251C25.0148 21.3687 25.9051 21 26.8333 21H38.5C39.4283 21 40.3185 21.3687 40.9749 22.0251C41.6313 22.6815 42 23.5717 42 24.5V39.6667H44.3333V25.865C45.016 26.1064 45.607 26.5535 46.0249 27.1449C46.4428 27.7362 46.667 28.4426 46.6667 29.1667V39.865ZM39.6667 38.017V24.5C39.6667 24.1906 39.5438 23.8938 39.325 23.675C39.1062 23.4562 38.8094 23.3333 38.5 23.3333H26.8333C26.5239 23.3333 26.2272 23.4562 26.0084 23.675C25.7896 23.8938 25.6667 24.1906 25.6667 24.5V28H28.2007C29.1286 28.0008 30.0183 28.3701 30.674 29.0267L39.6667 38.017ZM23.3333 31.5V44.3333C23.3333 44.9522 23.5792 45.5457 24.0168 45.9832C24.4543 46.4208 25.0478 46.6667 25.6667 46.6667H44.3333C44.9522 46.6667 45.5457 46.4208 45.9832 45.9832C46.4208 45.5457 46.6667 44.9522 46.6667 44.3333V43.1667C46.6667 42.8572 46.5438 42.5605 46.325 42.3417C46.1062 42.1229 45.8094 42 45.5 42H41.7993C40.8714 41.9992 39.9817 41.6299 39.326 40.9733L29.0243 30.6763C28.8061 30.4574 28.5098 30.334 28.2007 30.3333H24.5C24.1906 30.3333 23.8938 30.4562 23.675 30.675C23.4563 30.8938 23.3333 31.1906 23.3333 31.5Z" fill="#283C26"/>
</svg>
