<svg width="71" height="70" viewBox="0 0 71 70" fill="none" xmlns="http://www.w3.org/2000/svg">
<path d="M22.6045 27.378V47.8709C22.6045 48.2184 22.7162 48.5039 22.9397 48.7273C23.1631 48.9508 23.4492 49.0625 23.798 49.0625H48.5379C48.8854 49.0625 49.1708 48.9508 49.3943 48.7273C49.6178 48.5039 49.7295 48.2184 49.7295 47.8709V27.378H41.9795V40.5297L36.167 37.6235L30.3545 40.5297V27.378H22.6045ZM23.798 51C22.93 51 22.1912 50.6952 21.5815 50.0855C20.9718 49.4758 20.667 48.7376 20.667 47.8709V26.7541C20.667 26.377 20.7271 26.0217 20.8472 25.6885C20.9673 25.3552 21.1481 25.0485 21.3897 24.7682L24.4083 21.1451C24.6886 20.7666 25.0393 20.4811 25.4604 20.2887C25.8815 20.0962 26.3329 20 26.8147 20H45.4457C45.9262 20 46.3834 20.0962 46.8174 20.2887C47.2514 20.4811 47.6086 20.766 47.8889 21.1431L50.9443 24.8438C51.1858 25.124 51.3667 25.4373 51.4868 25.7834C51.6069 26.1283 51.667 26.49 51.667 26.8684V47.8709C51.667 48.7364 51.3622 49.4745 50.7525 50.0855C50.1428 50.6952 49.4046 51 48.5379 51H23.798ZM23.3407 25.4405H48.9545L46.3776 22.3444C46.2523 22.2204 46.109 22.1216 45.9475 22.0479C45.786 21.9743 45.6181 21.9375 45.4437 21.9375H26.8515C26.6784 21.9375 26.5105 21.975 26.3477 22.0499C26.185 22.1248 26.0429 22.2242 25.9215 22.3482L23.3407 25.4405ZM32.2901 27.378V37.3619L36.1651 35.4244L40.0401 37.3619V27.3799L32.2901 27.378Z" fill="#283C26"/>
</svg>
