<svg width="71" height="70" viewBox="0 0 71 70" fill="none" xmlns="http://www.w3.org/2000/svg">
<path fill-rule="evenodd" clip-rule="evenodd" d="M34.9308 32.316C36.5663 32.0267 38.2523 32.2344 39.7651 32.9117C41.2779 33.5889 42.5458 34.7036 43.4006 36.1078C44.2553 37.5119 44.6563 39.1391 44.5505 40.7731C44.4446 42.4072 43.8369 43.9709 42.8079 45.2565L44.0662 46.4965C44.393 46.4102 44.737 46.4103 45.0637 46.4966C45.3905 46.5829 45.6884 46.7525 45.9276 46.9883L50.7448 51.7354C50.9288 51.9105 51.0756 52.12 51.1766 52.3517C51.2776 52.5834 51.3307 52.8325 51.3329 53.0847C51.3352 53.3368 51.2864 53.5868 51.1895 53.8202C51.0926 54.0535 50.9496 54.2656 50.7686 54.4438C50.5877 54.6221 50.3726 54.7631 50.1358 54.8586C49.899 54.9541 49.6452 55.0021 49.3894 54.9999C49.1335 54.9977 48.8807 54.9454 48.6456 54.8458C48.4105 54.7463 48.1979 54.6017 48.0201 54.4203L43.2029 49.6732C42.9637 49.4376 42.7916 49.144 42.704 48.822C42.6164 48.5 42.6164 48.161 42.7039 47.8389L41.4456 46.599C40.0025 47.7235 38.2158 48.3339 36.376 48.3307C35.8915 48.3307 35.4079 48.2888 34.9308 48.2054V50.2296C34.8954 51.4653 34.3723 52.6388 33.4728 53.5005C32.5732 54.3622 31.3682 54.8443 30.1136 54.8443C28.8591 54.8443 27.6541 54.3622 26.7545 53.5005C25.855 52.6388 25.3319 51.4653 25.2964 50.2296V25.2485C25.2963 24.9539 25.3889 24.6665 25.5614 24.4259C25.734 24.1853 25.978 24.0033 26.2599 23.9051V22.6965H25.2964C25.0409 22.6965 24.7959 22.5965 24.6152 22.4184C24.4345 22.2404 24.333 21.9989 24.333 21.7471V17.9494C24.333 17.9159 24.3346 17.8836 24.3378 17.8526C24.3622 17.6187 24.4737 17.4021 24.6507 17.2446C24.8278 17.0871 25.0579 16.9999 25.2964 17H34.9308C35.1864 17 35.4314 17.1 35.6121 17.2781C35.7928 17.4561 35.8943 17.6976 35.8943 17.9494V21.7471C35.8943 21.9989 35.7928 22.2404 35.6121 22.4184C35.4314 22.5965 35.1864 22.6965 34.9308 22.6965H33.9674V23.9051C34.2493 24.0033 34.4933 24.1853 34.6659 24.4259C34.8384 24.6665 34.931 24.9539 34.9308 25.2485V32.316ZM28.1868 22.6965H32.0405V23.9051C32.0405 24.2384 32.1296 24.5658 32.2987 24.8545C32.4678 25.1431 32.7111 25.3828 33.004 25.5495V30.2918H27.2233V25.5495C27.5162 25.3828 27.7595 25.1431 27.9286 24.8545C28.0977 24.5658 28.1868 24.2384 28.1868 23.9051V22.6965ZM27.2233 32.1907V50.2296C27.2507 50.967 27.5671 51.6652 28.1062 52.1774C28.6452 52.6895 29.3649 52.9757 30.1136 52.9757C30.8624 52.9757 31.5821 52.6895 32.1211 52.1774C32.6602 51.6652 32.9766 50.967 33.004 50.2296V47.6168C31.5679 46.9774 30.3496 45.9432 29.4951 44.6384C28.6407 43.3336 28.1864 41.8136 28.1868 40.2607C28.1864 38.7078 28.6407 37.1878 29.4951 35.883C30.3496 34.5782 31.5679 33.5441 33.004 32.9046V32.1907H27.2233ZM26.2599 20.7977H33.9674V18.8988H26.2599V20.7977ZM34.9308 34.2547C33.5587 34.5745 32.3363 35.3417 31.4619 36.4318C30.5876 37.522 30.1125 38.8712 30.1136 40.2607C30.113 41.0713 30.2746 41.8741 30.5891 42.6231C30.9035 43.3721 31.3648 44.0526 31.9464 44.6258C32.5281 45.199 33.2187 45.6535 33.9788 45.9634C34.7388 46.2733 35.5534 46.4325 36.376 46.4319C37.7046 46.4341 38.9991 46.018 40.0708 45.2442C40.5925 44.8686 41.052 44.4158 41.4331 43.9017C42.0913 43.0142 42.497 41.9694 42.6082 40.8756C42.7193 39.7818 42.532 38.6785 42.0655 37.6799C41.599 36.6813 40.8703 35.8237 39.9548 35.1956C39.0392 34.5676 37.97 34.1919 36.8577 34.1075V45.0078H34.9308V34.2547Z" fill="#283C26"/>
</svg>
