<svg width="70" height="70" viewBox="0 0 70 70" fill="none" xmlns="http://www.w3.org/2000/svg">
<path d="M18.7725 25.9377V43.8172M24.214 41.8598C25.269 43.2869 26.5928 43.8184 28.4339 43.8184H30.9817C32.1204 43.8184 33.2125 43.3484 34.0177 42.5119C34.8229 41.6754 35.2753 40.5409 35.2753 39.3579V39.3391C35.2753 38.1561 34.8229 37.0215 34.0177 36.185C33.2125 35.3486 32.1204 34.8786 30.9817 34.8786H28.1707C27.0311 34.8783 25.9382 34.4079 25.1322 33.5709C24.3263 32.7338 23.8732 31.5986 23.8726 30.4146C23.8726 27.9422 25.801 25.9389 28.1809 25.9389H30.714C32.5551 25.9389 33.8789 26.4703 34.9339 27.8986M46.0711 43.8172C44.5594 43.8169 43.1097 43.1929 42.0408 42.0824C40.9718 40.9719 40.3712 39.4659 40.3709 37.8955V31.8594C40.3558 31.0718 40.492 30.289 40.7717 29.5568C41.0514 28.8246 41.4688 28.1577 41.9996 27.5951C42.5305 27.0326 43.164 26.5857 43.8631 26.2806C44.5622 25.9755 45.3128 25.8184 46.0711 25.8184C46.8294 25.8184 47.5801 25.9755 48.2792 26.2806C48.9783 26.5857 49.6118 27.0326 50.1426 27.5951C50.6734 28.1577 51.0909 28.8246 51.3705 29.5568C51.6502 30.289 51.7865 31.0718 51.7713 31.8594V37.8931C51.7713 39.4637 51.1708 40.9701 50.1018 42.0808C49.0329 43.1915 47.583 43.8169 46.0711 43.8172Z" stroke="#283C26" stroke-width="3" stroke-linecap="round" stroke-linejoin="round"/>
</svg>
