<svg width="48" height="37" viewBox="-4 0 48 37" fill="none" xmlns="http://www.w3.org/2000/svg">
<g id="Group">
<path id="Vector" d="M21 28C25.4183 28 29 24.4183 29 20C29 15.5817 25.4183 12 21 12C16.5817 12 13 15.5817 13 20C13 24.4183 16.5817 28 21 28Z" fill="white" stroke="white" stroke-width="2"/>
<path id="Vector_2" d="M17.2221 23.7778L9.5 31.5M18.5 19.5L6.5 14.5" stroke="white" stroke-width="2" stroke-linejoin="round"/>
<path id="Vector_3" d="M32.3332 35.1108C33.3764 35.1108 34.2221 34.2651 34.2221 33.2219C34.2221 32.1787 33.3764 31.333 32.3332 31.333C31.29 31.333 30.4443 32.1787 30.4443 33.2219C30.4443 34.2651 31.29 35.1108 32.3332 35.1108Z" fill="white" stroke="white" stroke-width="2"/>
<path id="Vector_4" d="M24.7783 23.7773L32.3339 33.2218" stroke="white" stroke-width="2" stroke-linejoin="round"/>
<path id="Vector_5" d="M34 11C36.7614 11 39 8.76142 39 6C39 3.23858 36.7614 1 34 1C31.2386 1 29 3.23858 29 6C29 8.76142 31.2386 11 34 11Z" fill="white" stroke="white" stroke-width="2"/>
<path id="Vector_6" d="M31 9L25 16" stroke="white" stroke-width="2" stroke-linejoin="round"/>
<path id="Vector_7" d="M4.72222 18.4444C7.33023 18.4444 9.44444 16.3302 9.44444 13.7222C9.44444 11.1142 7.33023 9 4.72222 9C2.11421 9 0 11.1142 0 13.7222C0 16.3302 2.11421 18.4444 4.72222 18.4444Z" fill="white"/>
<path id="Vector_8" d="M8.5 35C9.88071 35 11 33.8807 11 32.5C11 31.1193 9.88071 30 8.5 30C7.11929 30 6 31.1193 6 32.5C6 33.8807 7.11929 35 8.5 35Z" fill="white" stroke="white" stroke-width="2"/>
</g>
</svg>
