<svg width="48" height="48" viewBox="0 0 48 48" fill="none" xmlns="http://www.w3.org/2000/svg">
<g id="ic:outline-oil-barrel">
<path id="Vector" d="M23.0429 6.42637L12.4286 18.2418C12.15 18.5453 12 18.95 12 19.3619C12 20.2869 12.7357 21.0312 13.65 21.0312H15.4286L10.1857 26.3355C9.88571 26.6391 9.71429 27.0582 9.71429 27.4918C9.71429 28.3951 10.4357 29.125 11.3286 29.125H13.7143L8.38571 35.5928C8.13571 35.8963 8 36.2793 8 36.6768C8 37.6162 8.75 38.375 9.67857 38.375H21.7143V40.6875C21.7143 41.9666 22.7357 43 24 43C25.2643 43 26.2857 41.9666 26.2857 40.6875V38.375H38.3214C39.25 38.375 40 37.6162 40 36.6768C40 36.2793 39.8643 35.8963 39.6143 35.5928L34.2857 29.125H36.6714C37.5643 29.125 38.2857 28.3951 38.2857 27.4918C38.2857 27.0582 38.1143 26.6391 37.8143 26.3355L32.5714 21.0312H34.35C35.2571 21.0312 36 20.2869 36 19.3619C36 18.95 35.85 18.5453 35.5714 18.2418L24.9571 6.42637C24.7143 6.15176 24.3643 6 24 6C23.6357 6 23.2857 6.15176 23.0429 6.42637Z" fill="white"/>
</g>
</svg>
