<svg width="48" height="39" viewBox="-11 0 48 39" fill="none" xmlns="http://www.w3.org/2000/svg">
<g id="Group">
<path id="Exclude" d="M17.333 0.5C17.9076 0.5 18.4589 0.700333 18.8652 1.05664C19.2716 1.41296 19.5 1.89648 19.5 2.40039V6.2002C20.0746 6.2002 20.6259 6.40052 21.0322 6.75684C21.4383 7.11304 21.6669 7.59595 21.667 8.09961C21.667 8.60345 21.4385 9.08705 21.0322 9.44336C20.6259 9.79968 20.0746 10 19.5 10V12.8809C23.7487 15.9797 26 20.0568 26 24.25V32.7998C26 34.3113 25.3154 35.7612 24.0967 36.8301C22.8777 37.899 21.2239 38.5 19.5 38.5H6.5C4.77609 38.5 3.12231 37.899 1.90332 36.8301C0.684639 35.7612 0 34.3113 0 32.7998V24.25C0 20.0568 2.25131 15.9797 6.5 12.8809V10C5.92536 10 5.3741 9.79968 4.96777 9.44336C4.56155 9.08705 4.33301 8.60345 4.33301 8.09961C4.33313 7.59595 4.56171 7.11304 4.96777 6.75684C5.3741 6.40052 5.92536 6.2002 6.5 6.2002V2.40039C6.5 1.89648 6.72844 1.41296 7.13477 1.05664C7.54109 0.700333 8.09237 0.5 8.66699 0.5H17.333ZM13.5 18.5C13.074 18.4977 12.6602 18.6266 12.3301 18.8652C12.2165 18.9464 12.1309 19.0251 12.0869 19.0674C11.9959 19.1541 11.9099 19.2449 11.8301 19.3398C11.651 19.5502 11.4788 19.7657 11.3145 19.9854C10.9332 20.489 10.4586 21.1681 9.99121 21.9023C9.52371 22.6368 9.05038 23.4531 8.68555 24.2266C8.34823 24.935 8 25.8255 8 26.625C8 27.9179 8.57988 29.158 9.61133 30.0723C10.6428 30.9863 12.0414 31.5 13.5 31.5C14.9586 31.5 16.3573 30.9863 17.3887 30.0723C18.4201 29.158 19 27.9179 19 26.625C19 25.8271 18.6518 24.9347 18.3145 24.2246C17.9295 23.4298 17.4933 22.6551 17.0088 21.9043C16.5962 21.2506 16.1555 20.611 15.6875 19.9873C15.5232 19.7671 15.351 19.5507 15.1719 19.3398C15.0921 19.2449 15.0061 19.1541 14.915 19.0674C14.7587 18.9153 14.5743 18.7877 14.3691 18.6914C14.1018 18.5648 13.8031 18.4993 13.5 18.5Z" fill="white"/>
</g>
</svg>
