<svg width="16" height="16" viewBox="0 0 16 16" fill="none" xmlns="http://www.w3.org/2000/svg">
<g id="Frame 1000001384">
<path id="check_circle" d="M7.00442 10.5029L11.3298 6.19673L10.6154 5.48231L7.00442 9.07404L5.36981 7.45865L4.65538 8.17308L7.00442 10.5029ZM8.00135 15C7.04186 15 6.13667 14.8178 5.28577 14.4535C4.43487 14.0891 3.69013 13.5878 3.05154 12.9494C2.41295 12.3111 1.91135 11.5667 1.54673 10.7162C1.18224 9.86564 1 8.96071 1 8.00135C1 7.02904 1.18218 6.12064 1.54654 5.27615C1.9109 4.43167 2.41224 3.69013 3.05058 3.05154C3.68891 2.41295 4.43333 1.91135 5.28385 1.54673C6.13436 1.18224 7.03929 1 7.99865 1C8.97096 1 9.87936 1.18218 10.7238 1.54654C11.5683 1.9109 12.3099 2.41224 12.9485 3.05058C13.5871 3.68891 14.0887 4.43013 14.4533 5.27423C14.8178 6.11833 15 7.02647 15 7.99865C15 8.95814 14.8178 9.86333 14.4535 10.7142C14.0891 11.5651 13.5878 12.3099 12.9494 12.9485C12.3111 13.5871 11.5699 14.0887 10.7258 14.4533C9.88167 14.8178 8.97353 15 8.00135 15ZM8 14C9.66667 14 11.0833 13.4167 12.25 12.25C13.4167 11.0833 14 9.66667 14 8C14 6.33333 13.4167 4.91667 12.25 3.75C11.0833 2.58333 9.66667 2 8 2C6.33333 2 4.91667 2.58333 3.75 3.75C2.58333 4.91667 2 6.33333 2 8C2 9.66667 2.58333 11.0833 3.75 12.25C4.91667 13.4167 6.33333 14 8 14Z" fill="#283C26"/>
</g>
</svg>
