<svg width="88" height="88" viewBox="0 0 88 88" fill="none" xmlns="http://www.w3.org/2000/svg">
<path d="M44 52C48.4183 52 52 48.4183 52 44C52 39.5817 48.4183 36 44 36C39.5817 36 36 39.5817 36 44C36 48.4183 39.5817 52 44 52Z" fill="#283C26" stroke="#283C26" stroke-width="2"/>
<path d="M40.2221 47.7778L32.5 55.5M41.5 43.5L29.5 38.5" stroke="#283C26" stroke-width="2" stroke-linejoin="round"/>
<path d="M55.3332 59.1108C56.3764 59.1108 57.2221 58.2651 57.2221 57.2219C57.2221 56.1787 56.3764 55.333 55.3332 55.333C54.29 55.333 53.4443 56.1787 53.4443 57.2219C53.4443 58.2651 54.29 59.1108 55.3332 59.1108Z" fill="#283C26" stroke="#283C26" stroke-width="2"/>
<path d="M47.7783 47.7773L55.3339 57.2218" stroke="#283C26" stroke-width="2" stroke-linejoin="round"/>
<path d="M57 35C59.7614 35 62 32.7614 62 30C62 27.2386 59.7614 25 57 25C54.2386 25 52 27.2386 52 30C52 32.7614 54.2386 35 57 35Z" fill="#283C26" stroke="#283C26" stroke-width="2"/>
<path d="M54 33L48 40" stroke="#283C26" stroke-width="2" stroke-linejoin="round"/>
<path d="M27.7222 42.4444C30.3302 42.4444 32.4444 40.3302 32.4444 37.7222C32.4444 35.1142 30.3302 33 27.7222 33C25.1142 33 23 35.1142 23 37.7222C23 40.3302 25.1142 42.4444 27.7222 42.4444Z" fill="#283C26"/>
<path d="M31.5 59C32.8807 59 34 57.8807 34 56.5C34 55.1193 32.8807 54 31.5 54C30.1193 54 29 55.1193 29 56.5C29 57.8807 30.1193 59 31.5 59Z" fill="#283C26" stroke="#283C26" stroke-width="2"/>
</svg>
