<svg width="88" height="88" viewBox="0 0 88 88" fill="none" xmlns="http://www.w3.org/2000/svg">
<path fill-rule="evenodd" clip-rule="evenodd" d="M38.1346 25.5565C38.5409 25.2002 39.092 25 39.6667 25H48.3333C48.908 25 49.4591 25.2002 49.8654 25.5565C50.2717 25.9128 50.5 26.3961 50.5 26.9V30.7C51.0746 30.7 51.6257 30.9002 52.0321 31.2565C52.4384 31.6128 52.6667 32.0961 52.6667 32.6C52.6667 33.1039 52.4384 33.5872 52.0321 33.9435C51.6257 34.2998 51.0746 34.5 50.5 34.5V37.3804C54.7488 40.4793 57 44.5567 57 48.75V57.3C57 58.8117 56.3152 60.2616 55.0962 61.3305C53.8772 62.3995 52.2239 63 50.5 63H37.5C35.7761 63 34.1228 62.3995 32.9038 61.3305C31.6848 60.2616 31 58.8117 31 57.3V48.75C31 44.5567 33.2512 40.4793 37.5 37.3804V34.5C36.9254 34.5 36.3743 34.2998 35.9679 33.9435C35.5616 33.5872 35.3333 33.1039 35.3333 32.6C35.3333 32.0961 35.5616 31.6128 35.9679 31.2565C36.3743 30.9002 36.9254 30.7 37.5 30.7V26.9C37.5 26.3961 37.7283 25.9128 38.1346 25.5565ZM43.3303 43.3657C43.6605 43.127 44.074 42.9978 44.5 43C44.8031 42.9993 45.1017 43.0652 45.369 43.1918C45.5741 43.2881 45.759 43.4151 45.9153 43.5672C46.0064 43.6539 46.0921 43.7451 46.172 43.8402C46.3511 44.0511 46.5229 44.2667 46.6872 44.4869C47.1553 45.1108 47.5963 45.7505 48.009 46.4044C48.4935 47.1553 48.9293 47.93 49.3143 48.7249C49.6517 49.435 50 50.3271 50 51.125C50 52.4179 49.4205 53.6579 48.3891 54.5721C47.3576 55.4864 45.9587 56 44.5 56C43.0413 56 41.6424 55.4864 40.6109 54.5721C39.5795 53.6579 39 52.4179 39 51.125C39 50.3255 39.3483 49.435 39.6857 48.7265C40.0505 47.953 40.5235 47.1373 40.991 46.4028C41.4585 45.6683 41.9333 44.989 42.3147 44.4853C42.479 44.2657 42.6508 44.0505 42.8298 43.8402C42.9097 43.7451 42.9954 43.6539 43.0865 43.5672C43.1305 43.5249 43.2167 43.4469 43.3303 43.3657Z" fill="#271708"/>
</svg>
