<svg width="88" height="88" viewBox="0 0 88 88" fill="none" xmlns="http://www.w3.org/2000/svg">
<path d="M43.0429 26.4264L32.4286 38.2418C32.15 38.5453 32 38.95 32 39.3619C32 40.2869 32.7357 41.0312 33.65 41.0312H35.4286L30.1857 46.3355C29.8857 46.6391 29.7143 47.0582 29.7143 47.4918C29.7143 48.3951 30.4357 49.125 31.3286 49.125H33.7143L28.3857 55.5928C28.1357 55.8963 28 56.2793 28 56.6768C28 57.6162 28.75 58.375 29.6786 58.375H41.7143V60.6875C41.7143 61.9666 42.7357 63 44 63C45.2643 63 46.2857 61.9666 46.2857 60.6875V58.375H58.3214C59.25 58.375 60 57.6162 60 56.6768C60 56.2793 59.8643 55.8963 59.6143 55.5928L54.2857 49.125H56.6714C57.5643 49.125 58.2857 48.3951 58.2857 47.4918C58.2857 47.0582 58.1143 46.6391 57.8143 46.3355L52.5714 41.0312H54.35C55.2571 41.0312 56 40.2869 56 39.3619C56 38.95 55.85 38.5453 55.5714 38.2418L44.9571 26.4264C44.7143 26.1518 44.3643 26 44 26C43.6357 26 43.2857 26.1518 43.0429 26.4264Z" fill="#283C26"/>
</svg>
