<svg width="113" height="54" viewBox="0 0 113 54" fill="none" xmlns="http://www.w3.org/2000/svg">
<g id="Group 1">
<path id="Vector" d="M3.11917 51.7548V18.0548H1.18735L0 14.4164H3.11917V11.45C3.11917 7.3649 3.50095 5.88359 4.97463 4.1732C5.70918 3.32663 6.62315 2.65438 7.65008 2.2053C8.67701 1.75623 9.79109 1.54162 10.9114 1.57708C13.6602 1.57708 15.7371 2.61553 17.2222 4.69624C18.1881 6.10502 18.7074 8.25828 18.7074 11.1522V51.7548H15.0842V18.0548H6.75756V51.7548H3.11917ZM6.75756 14.4164H15.0842V9.88849C15.0842 6.99458 13.5266 5.21547 11.1519 5.21547C8.55194 5.21547 6.77283 7.21983 6.77283 9.96484L6.75756 14.4164Z" fill="#EFE2D1"/>
<path id="Vector_2" d="M29.1875 51.7548V2.24521H32.8221V48.1164H42.0269V51.7548H29.1875Z" fill="#EFE2D1"/>
<path id="Vector_3" d="M49.8916 51.7548V2.24521H53.53V51.7548H49.8916Z" fill="#EFE2D1"/>
<path id="Vector_4" d="M109.362 2.24521V31.3867L98.8972 17.15V15.0617H98.8743V2.2643H95.2588V51.7548H98.8972V22.2888L109.362 36.514V51.7548H113V2.24521H109.362Z" fill="#EFE2D1"/>
<path id="Vector_5" d="M74.849 53.4537C66.7247 53.4537 60.3604 41.8323 60.3604 27C60.3604 12.1677 66.7247 0.546272 74.849 0.546272C82.9733 0.546272 89.3338 12.1677 89.3338 27C89.3338 41.8323 82.9695 53.4537 74.849 53.4537ZM74.849 3.94414C68.8359 3.94414 63.7773 14.5004 63.7773 27C63.7773 39.4996 68.855 50.0559 74.849 50.0559C80.843 50.0559 85.9207 39.4958 85.9207 27C85.9207 14.5043 80.8582 3.94414 74.849 3.94414Z" fill="#EFE2D1"/>
</g>
</svg>
