<svg width="153" height="220" viewBox="0 0 153 220" fill="none" xmlns="http://www.w3.org/2000/svg">
<path d="M4.33159 142.637V95.9036H1.65431L0 90.8537H4.35338V86.7397C4.35338 81.0586 4.854 79.0125 6.92186 76.6399C7.93711 75.4622 9.20293 74.5265 10.6266 73.9013C12.0502 73.2761 13.5957 72.9772 15.1497 73.0266C16.8503 72.9599 18.5401 73.324 20.0623 74.0851C21.5844 74.8462 22.8895 75.9795 23.8565 77.3799C25.4141 80.1003 26.1335 83.2202 25.9244 86.348V142.659H20.8962V95.9036H9.35974V142.637H4.33159ZM9.35974 90.8537H20.8962V84.5631C20.8962 80.5579 18.7195 78.033 15.4327 78.033C14.5971 78.037 13.7713 78.2122 13.006 78.5477C12.2408 78.8833 11.5524 79.3721 10.9834 79.984C10.4143 80.5958 9.97663 81.3178 9.69739 82.1054C9.41816 82.8929 9.30324 83.7294 9.35974 84.5631V90.8537Z" fill="white"/>
<path d="M39.2227 142.637V73.9626H44.2726V137.609H57.0498V142.637H39.2227Z" fill="white"/>
<path d="M66.6924 142.637V73.9626H71.7423V142.637H66.6924Z" fill="white"/>
<path d="M147.928 73.9626V114.384L133.41 94.6412V91.7462V73.9844H128.403V142.659H133.431V101.759L147.95 121.502V142.637H153V73.9626H147.928Z" fill="white"/>
<path d="M115.429 108.312C115.429 99.1232 113.5 90.9201 110.495 85.1013C107.428 79.1637 103.609 76.3143 100.041 76.3138C96.4726 76.3138 92.652 79.1631 89.5849 85.1013C86.5797 90.9201 84.6512 99.1232 84.6512 108.312C84.6513 117.5 86.5798 125.701 89.5849 131.52C92.652 137.458 96.4725 140.309 100.041 140.309C103.609 140.309 107.428 137.458 110.495 131.52C113.5 125.701 115.429 117.5 115.429 108.312ZM120.131 108.312C120.131 118.093 118.087 127.065 114.672 133.677C111.319 140.17 106.27 145.009 100.041 145.009C93.8122 145.009 88.7615 140.17 85.408 133.677C81.9927 127.065 79.9493 118.093 79.9492 108.312C79.9492 98.53 81.9926 89.5567 85.408 82.9438C88.7615 76.4511 93.8124 71.6118 100.041 71.6118C106.269 71.6123 111.319 76.4515 114.672 82.9438C118.088 89.5567 120.131 98.53 120.131 108.312Z" fill="white"/>
<path d="M101.369 1.13063C102.2 1.13901 103.016 1.35605 103.742 1.76186C104.863 2.45678 106.035 3.06791 107.246 3.59027C106.571 2.91549 105.918 2.21895 105.309 1.41358L104.569 1C103.505 1.09837 102.437 1.14199 101.369 1.13063Z" fill="white"/>
<path d="M17.5426 35.9139L17.3467 36.4146C19.1653 36.8791 21.0237 37.1706 22.8972 37.2852C21.2651 36.4677 19.5184 35.9026 17.7167 35.6091C17.7167 35.6091 17.5861 35.8051 17.5426 35.9139Z" fill="white"/>
<path d="M115.254 31.2562L115.864 30.9298L113.274 30.3856L115.581 29.1448C115.24 28.9661 114.883 28.8204 114.514 28.7096C112.617 28.4762 110.692 28.7309 108.92 29.4496C109.24 28.8186 109.694 28.2655 110.25 27.8292C110.807 27.3929 111.453 27.0841 112.142 26.9246C113.23 26.7723 114.318 26.5329 115.363 26.337L116.082 26.0975V25.8798H112.294L114.275 23.9861L114.079 23.7685C113.147 24.2806 112.284 24.9096 111.511 25.6404C110.951 26.0125 110.343 26.3054 109.704 26.5111C109.275 26.624 108.839 26.7041 108.398 26.7505L106.678 27.1423V26.9246L109.421 26.2499V26.0758L107.092 26.4023L110.335 22.3319L110.183 22.136L109.356 22.4189C108.354 22.7672 107.309 23.0066 106.373 23.4419C105.024 24.0514 103.783 24.835 102.455 25.5098C101.802 25.8363 101.084 26.0757 100.409 26.3587C101.513 24.8356 103.021 23.6519 104.763 22.9413C105.291 22.7097 105.794 22.4253 106.265 22.0924C106.395 22.0924 106.395 21.7006 106.439 21.5047C106.266 21.4742 106.089 21.4742 105.916 21.5047C105.22 21.8312 104.523 22.1359 103.892 22.506C103.261 22.876 102.434 23.4637 101.715 23.9644V23.8338L104.219 21.5047L104.066 21.3088L102.303 22.3754L104.066 20.3511L103.827 20.1116C103.239 20.5905 102.651 21.0694 102.042 21.5047C101.783 21.6682 101.473 21.7302 101.171 21.6788C100.253 21.331 99.2385 21.331 98.3198 21.6788C98.1674 21.6788 97.9279 21.6788 97.5797 21.6788C100.301 20.0681 100.475 19.8722 100.126 18.9797C99.0816 19.698 98.0585 20.4381 96.992 21.1564C95.9254 21.8747 95.4247 21.7877 94.9241 20.6123C95.874 20.3401 96.7466 19.8479 97.4708 19.1756L97.362 18.8927L93.3351 19.9593V19.7198L94.3582 18.8056L94.2276 18.6097C93.0522 19.045 91.8768 19.5021 90.6361 19.9375C91.3761 19.3715 92.0509 18.8274 92.7039 18.2832L92.508 18.0002C92.1597 18.1961 91.7897 18.3485 91.4414 18.5662C90.7014 19.0668 89.983 19.5892 89.2647 20.0463C87.6821 20.8422 86.2171 21.853 84.9114 23.0501C84.6502 23.3113 84.0842 23.2678 83.6488 23.3766L83.5182 23.0284L85.3031 21.7877C84.8586 21.885 84.3982 21.885 83.9536 21.7877C83.5618 21.6571 83.2571 21.2 82.9306 20.8734C83.1415 20.6537 83.375 20.4568 83.6271 20.2858C85.1508 19.5457 86.6745 18.8709 88.1764 18.1091C88.6097 17.8587 89.0179 17.5671 89.3953 17.2384L89.243 16.9989L86.8051 18.0873L87.6975 16.6725L87.4798 16.5201C87.2025 16.6482 86.9335 16.7936 86.6745 16.9554C85.2814 17.8696 83.823 18.7185 82.4952 19.7416C80.8134 20.7311 78.8681 21.1794 76.9229 21.0258C76.9229 21.0258 76.9229 21.0258 76.7488 20.8734C78.0179 19.7033 79.6114 18.9445 81.3198 18.6968L80.3403 19.328C80.9781 19.4091 81.6237 19.258 82.1593 18.9023C82.6948 18.5466 83.0845 18.0101 83.257 17.3908L80.7756 17.8043C79.5784 18.022 79.2955 17.8043 78.9908 16.5201C79.4696 16.5201 79.9702 16.3895 80.4491 16.2806L81.9075 15.9106V15.5406L80.0791 14.9746L80.275 15.5406C78.0983 15.9541 77.2276 15.5406 75.791 13.538C76.5964 13.7557 77.2059 14.5393 78.0983 14.3434V14.0822L74.4415 12.0578C75.2686 12.0578 76.0958 11.7531 76.6182 12.6673C76.9451 13.0842 77.3825 13.401 77.8806 13.5816C80.3403 14.5611 82.8217 15.4753 85.2814 16.3895C85.5962 16.4606 85.9167 16.5042 86.2391 16.5201L75.6604 10.2077V9.8594C76.136 9.73472 76.6277 9.68332 77.1188 9.70701C77.8588 9.70701 78.4465 10.4036 79.2955 10.5342C79.8183 10.7285 80.2934 11.0328 80.6886 11.4266C82.686 12.8471 84.8878 13.9554 87.2186 14.7134C87.9346 14.8832 88.6622 14.9996 89.3953 15.0617L89.1124 14.6699C88.8373 14.5353 88.5537 14.4189 88.2634 14.3216C86.2525 13.7043 84.3557 12.7632 82.6476 11.5355C81.8216 10.798 80.8502 10.2419 79.7961 9.90294C79.4043 9.73771 79.0379 9.51786 78.7078 9.24993C79.6437 8.64045 79.7091 8.6622 80.4927 9.40228C81.5528 10.467 82.8297 11.291 84.2366 11.8184L80.2968 8.42277V8.13983C81.0351 8.15335 81.7678 8.27056 82.4735 8.48807C84.6502 9.55465 86.6962 10.8172 88.8512 11.8402C90.264 12.4635 91.7186 12.9872 93.2045 13.4074C93.5141 13.4624 93.8309 13.4624 94.1405 13.4074V13.168C90.5629 11.9698 87.2355 10.1253 84.3236 7.72625C85.0021 7.77032 85.6779 7.85024 86.348 7.96569C89.2022 8.54335 91.9994 9.37377 94.7065 10.4471C95.1726 10.639 95.6636 10.7636 96.1648 10.8171C96.4323 10.8497 96.7027 10.8497 96.9702 10.8171V10.6648L90.9843 7.8786V7.68271L97.362 9.8594C97.7377 10.0316 98.146 10.1207 98.5592 10.1207C98.9724 10.1207 99.3807 10.0316 99.7563 9.8594C95.403 8.70575 92.5516 5.506 89.0688 3.11164C89.4704 3.02378 89.8862 3.02378 90.2878 3.11164C91.9546 3.70257 93.3683 4.84737 94.2929 6.35492L94.467 6.18078L93.0957 4.50472C95.7948 5.78897 97.9062 8.11803 100.954 8.85811L100.235 8.07449C101.637 8.76626 103.223 8.99493 104.763 8.72751C101.737 7.9439 98.7116 7.20383 97.0138 4.00409L99.5604 5.35363L99.691 5.20128L99.4516 4.67886C99.984 4.5846 100.531 4.62051 101.047 4.78349C101.562 4.94646 102.031 5.23169 102.412 5.61486C103.796 6.80977 105.47 7.62039 107.266 7.96569C107.767 7.96569 108.267 7.96567 108.311 7.26913C106.32 6.75474 104.558 5.5903 103.304 3.96055L105.786 3.78644C103.718 3.11167 101.432 3.04636 99.691 1.26147H97.2314C98.2327 1.87095 98.9946 2.91577 100.018 3.54701C98.5322 3.17343 97.1679 2.42382 96.056 1.37032H94.2929L96.2519 2.58926L92.3121 2.15393V1.41383H90.4619C89.3955 2.06858 88.2131 2.512 86.9792 2.71985C86.4132 2.06685 87.088 1.84916 87.3927 1.47912C87.5669 2.04506 87.8934 2.06686 88.394 1.84919L89.33 1.43561H87.8498C87.7055 1.45739 87.5588 1.45739 87.4145 1.43561H84.2148C84.2148 2.54573 83.8883 3.00282 82.9523 3.26403C82.9693 2.62849 83.1254 2.0044 83.4094 1.43561H80.5797L80.4056 2.50217L81.0151 1.50091C81.1551 1.98917 81.1333 2.50964 80.9528 2.98443C80.7723 3.45923 80.4428 3.86278 80.0138 4.13469L80.2968 2.7634L79.339 4.13469L79.0125 3.96055L79.992 1.45737H77.5759C77.38 2.52395 77.0753 3.63407 76.8141 4.63535L77.467 4.09118C77.4975 4.82905 77.3065 5.55914 76.9186 6.18756C76.5307 6.81598 75.9636 7.31395 75.2904 7.61741L76.5529 5.17953C76.5529 5.17953 76.3134 4.94008 76.3352 4.83125C76.4876 3.85174 76.6834 2.87222 76.8358 1.87095C76.8358 1.71858 76.8358 1.58798 76.8358 1.43561H76.0522C75.791 2.7634 75.5516 4.09118 75.3121 5.41896C75.2906 5.76574 75.1402 6.09194 74.8905 6.33357C74.6409 6.57519 74.3099 6.71477 73.9626 6.72496C74.2456 4.89654 75.0727 3.22049 75.4862 1.45737H74.4197L73.6578 3.78644C73.4662 3.4109 73.4008 2.98352 73.4714 2.56783C73.542 2.15215 73.7447 1.77034 74.0496 1.47912H72.526L72.3954 2.30628C72.3954 2.52395 72.3954 2.8287 72.1995 2.93754C70.8935 3.93881 70.654 5.54954 69.8704 6.85555L69.718 7.11678H69.4568C69.6092 5.8543 69.7616 4.61358 69.9357 3.37287C69.9357 2.78516 70.1316 2.19746 70.2187 1.60975L69.0215 1.71856C68.8691 2.30627 68.7168 2.894 68.5862 3.48171C68.4556 4.06942 68.4338 4.59181 68.325 5.13598C68.2951 5.32245 68.2119 5.4963 68.0855 5.63661C67.4325 6.15902 66.7577 6.65968 66.2353 7.05148C66.3964 5.64027 66.6289 4.23812 66.9319 2.85045C67.0451 2.47894 67.2139 2.12669 67.4325 1.80565H66.5618C66.3784 2.19073 66.1442 2.54944 65.8653 2.8722C65.6081 3.06953 65.2967 3.18348 64.9729 3.19873C64.3373 3.11162 63.6929 3.11162 63.0574 3.19873C62.2085 3.4817 61.7295 3.19873 60.9895 2.52396C61.5751 2.31092 62.1949 2.20762 62.8179 2.21922C63.7999 2.4257 64.8208 2.34252 65.7564 1.97979L66.453 1.80565C64.999 1.84907 63.5438 1.7836 62.0996 1.60975L60.5106 1.43561L52.914 5.28833V7.46502H52.6746V5.28833C52.1739 5.54954 51.6733 5.81075 51.1509 6.05019C51.1718 6.22369 51.1718 6.3991 51.1509 6.57261V6.11549L50.6502 6.35492C51.5406 9.47654 51.2779 12.8144 49.9101 15.7582C49.9101 15.9759 49.5619 16.15 49.3877 16.3459C49.2843 16.0202 49.2843 15.6704 49.3877 15.3447C49.6489 13.9951 49.8448 12.6238 50.2366 11.3178C50.4867 10.737 50.5974 10.1056 50.5596 9.47438C50.5218 8.84313 50.3367 8.22952 50.019 7.68271C49.868 7.43844 49.7509 7.17483 49.6707 6.8991L49.2571 7.11678C49.4251 7.70698 49.6588 8.27648 49.9537 8.8146C48.3642 9.69082 47.0235 10.9566 46.0574 12.4932C45.4044 13.7339 44.6643 14.9093 43.8807 16.15C43.663 16.5418 43.5542 17.0207 43.3583 17.4561C43.1624 17.8914 42.8576 18.4791 42.6182 19.0015C42.727 17.9033 42.9909 16.826 43.4018 15.8018C43.9028 14.8299 44.4551 13.8854 45.0561 12.972C45.3174 12.5149 45.4915 12.0143 45.7091 11.5355L45.3608 11.3178C44.7802 11.8827 44.2554 12.5023 43.7936 13.168C42.9665 14.5611 42.3135 16.063 41.5081 17.5214C40.7028 18.9797 39.7885 20.1551 38.9179 21.4829L38.6349 21.3305C38.7446 20.9406 38.8903 20.5617 39.0702 20.1987L42.5965 14.0169L43.6195 12.1667L43.293 11.9272C42.5543 12.5906 41.8767 13.3191 41.2687 14.1039C40.2674 15.7147 39.4185 17.4125 38.5478 19.1103C38.0907 19.981 37.6989 20.8952 37.2636 21.8094L37.5465 22.0489L33.4108 23.7685V23.9426L34.8257 23.529L34.9781 23.812L34.0203 24.5086C33.1932 25.0745 33.0408 23.9861 32.4313 23.8773L34.1509 23.0937V22.9195H33.5632C34.1292 21.9183 34.6951 20.9388 35.2175 19.9593C35.7399 18.9798 36.2623 18.0438 36.7412 17.0642C36.85 16.8901 36.9153 16.6942 37.0242 16.4983L35.6093 17.5431C34.1698 19.7494 32.8756 22.047 31.7347 24.4215C31.2994 24.4215 31.1253 24.2256 31.2124 23.6814C31.2994 23.1372 31.343 22.0489 31.4083 21.2217C31.4338 21.0455 31.4702 20.8711 31.5171 20.6993C30.6465 21.6136 29.7105 22.506 28.7963 23.3549C28.6874 24.3127 28.3174 24.7697 27.5337 24.7915L28.0126 24.0732C26.9102 25.0357 25.8637 26.0604 24.8782 27.1423C22.4489 29.5678 20.1804 32.149 18.0869 34.8696C18.3306 34.8151 18.5833 34.8151 18.827 34.8696C21.0037 35.6096 23.1804 36.5457 25.3571 37.4381L27.5337 38.3741L27.7296 38.0258C27.0478 37.3994 26.3202 36.8246 25.5529 36.3062C24.7911 35.8708 23.8987 35.6532 23.0933 35.2831C22.7411 35.0822 22.4188 34.8332 22.1356 34.5431C21.2432 34.8478 20.3289 34.369 19.3929 33.5636L20.3289 33.237C20.5901 33.8247 20.7425 33.9553 21.5261 33.7159C22.0085 33.5802 22.5142 33.5488 23.0096 33.6238C23.5051 33.6989 23.9788 33.8787 24.3993 34.1513C26.0101 34.9784 27.7514 35.5444 29.3839 36.328C31.0165 37.1116 30.8205 37.0462 32.1483 36.2191L28.3827 34.8913V34.7607L29.7104 35.0437C29.2163 34.456 28.6048 33.9782 27.915 33.6408C27.2253 33.3034 26.4726 33.114 25.7053 33.0847C26.0861 32.9495 26.4801 32.8546 26.8808 32.8017C27.2164 32.7955 27.5481 32.7292 27.8602 32.6058C28.2189 32.3553 28.6556 32.2416 29.0909 32.2855C29.5263 32.3295 29.9315 32.5281 30.2329 32.8452C32.1021 34.3541 34.2248 35.5187 36.5017 36.2845C36.85 35.6968 36.7194 35.5008 35.9575 35.0872C34.4991 34.3036 33.0625 33.4982 31.6041 32.6929C31.3863 32.5448 31.1823 32.3772 30.9947 32.1923C33.302 32.1923 35.3481 33.6942 37.5247 33.4112V33.1064L30.1022 30.538L31.0818 29.972L28.5133 29.3843C30.407 28.9707 32.0613 28.2524 33.6285 29.6455C33.9986 29.972 34.4774 30.1679 34.8692 30.4727C36.567 31.8004 38.2649 33.1064 39.9409 34.456C40.5205 34.7877 40.9901 35.2821 41.2918 35.8778C41.5936 36.4735 41.7142 37.1446 41.6387 37.8081C41.5519 38.2244 41.5519 38.6543 41.6387 39.0706C41.8564 39.9413 42.1394 40.8119 42.4006 41.6826H42.7271C42.7271 41.3126 42.7271 40.9425 42.7271 40.5725C42.6903 40.371 42.6903 40.1645 42.7271 39.963C43.293 39.963 43.0536 39.5495 42.9883 39.31C42.7771 38.5646 42.75 37.779 42.9092 37.0207C43.0684 36.2625 43.4093 35.5542 43.9025 34.9566C43.9025 35.6749 44.0331 36.1756 44.0766 36.698C44.0636 37.1058 44.1783 37.5075 44.4046 37.847C44.631 38.1865 44.9576 38.4469 45.3391 38.5917C46.6233 38.9183 46.6233 38.9182 46.5145 40.2678C46.5145 40.7684 46.3622 41.2691 46.3404 41.7697C46.3404 43.0975 46.1227 44.447 46.1227 45.7748C46.1125 46.2471 46.2023 46.7162 46.3861 47.1513C46.5699 47.5864 46.8436 47.9778 47.1893 48.2998V46.319C47.7334 47.2114 47.7335 48.3215 48.7783 48.9528C48.0602 45.8538 48.5096 42.599 50.0407 39.8107C50.4761 40.1154 50.8897 40.3984 51.3032 40.7467C51.4198 40.8538 51.49 41.0022 51.4991 41.1602C51.4713 42.9447 51.3331 44.7257 51.0856 46.4931C50.6558 48.2296 50.5598 50.0319 50.8026 51.8042C50.952 52.3683 51.1412 52.9211 51.3685 53.4585H51.6732C51.459 49.7044 52.2083 45.9579 53.8499 42.5751C54.1274 43.2095 54.455 43.8209 54.8295 44.4035C54.9751 44.5885 55.0698 44.8084 55.1042 45.0413C55.1386 45.2742 55.1114 45.5121 55.0254 45.7313C54.3941 47.908 53.7411 49.8887 53.197 52.0001C53.0588 52.8488 53.0078 53.7095 53.0446 54.5686C53.0978 54.8462 53.2011 55.1117 53.3493 55.3522H53.5234C53.7193 54.6557 53.9152 53.9374 54.1329 53.1755H54.3288C54.2631 53.9473 54.3611 54.7243 54.6161 55.4557C54.8712 56.1871 55.2777 56.8565 55.809 57.4201C56.2641 55.5752 56.4978 53.6827 56.5055 51.7825C56.8735 49.8714 57.5343 48.0285 58.4645 46.319C59.0661 46.8304 59.5477 47.468 59.875 48.1866C60.2023 48.9051 60.3673 49.6869 60.3583 50.4765C60.2059 51.9566 59.8794 53.3932 59.7052 54.8298C59.5311 56.2665 59.4005 57.7031 59.3134 59.1832C59.3134 59.488 59.5311 59.7927 59.6399 60.0974H59.8576L60.3147 56.8106C60.6346 58.473 61.215 60.0744 62.0343 61.5558C61.8384 58.0296 61.6425 54.6557 61.4466 51.1512L62.3391 51.6083C62.4914 50.7376 62.6003 49.9323 62.7309 49.1486H63.1227C63.3028 49.9682 63.4408 50.7964 63.5362 51.6301C63.5362 53.3932 63.6451 55.1563 63.6668 56.9194C63.637 57.411 63.5642 57.899 63.4491 58.3779C63.2097 59.7927 62.905 61.1858 62.7526 62.5789C62.777 63.1105 62.8949 63.6336 63.1009 64.1243H63.3839L63.8192 62.1H63.928C64.1675 63.0577 64.4069 63.9937 64.6246 64.9514H64.8205L65.9959 60.0539H66.3006C66.0446 61.9914 66.3944 63.9607 67.3019 65.6915H67.6066L67.019 60.6634H67.1931L68.6515 62.6442H68.8256V61.3381C69.5004 62.9053 68.9997 64.8862 70.3928 66.214H70.6323C70.1752 63.8414 69.6962 61.4687 69.2174 59.0961H69.4133C69.6745 60.0974 69.914 61.1205 70.1534 62.1218H70.4799L70.7411 60.424C71.3802 62.2189 72.3471 63.8796 73.5925 65.3215L73.9626 65.1473L71.7859 59.8362H71.9165L74.2891 63.406L74.6374 63.1883L72.9178 59.858C73.6796 60.794 74.3761 61.7735 75.0945 62.7095C75.3503 62.9419 75.6357 63.1395 75.9434 63.2971C75.9434 62.9271 76.074 62.5571 76.1175 62.1871C76.1105 62.0773 76.0728 61.9717 76.0087 61.8823C75.3775 60.7722 74.768 59.7056 74.0932 58.552C73.4184 57.3983 73.0266 57.0283 72.4824 56.2447L72.6348 56.0923L78.316 61.0116C78.316 59.9886 77.4888 59.4662 76.9882 58.8349C75.7613 57.2055 74.1446 55.9106 72.2865 55.0692C71.7054 54.7149 71.1589 54.3068 70.654 53.8503L70.7846 53.6762C72.4213 54.1915 73.913 55.0865 75.138 56.2882L75.2904 56.1359C75.0727 55.6788 74.8332 55.2434 74.5938 54.8081L74.7244 54.6775L79.339 57.7684C78.8384 56.2447 77.5976 55.5917 76.5746 54.9169C75.5515 54.2422 74.3979 53.5456 73.1137 52.7402H75.0945C74.7236 52.5778 74.337 52.4537 73.9408 52.3702C72.4171 52.196 70.8934 52.0654 69.348 51.9348L68.325 50.7377L69.718 51.0859C70.9152 51.3471 72.1124 51.5865 73.2878 51.8695C74.0061 52.0436 74.8768 51.8696 75.2686 52.8055C76.1828 53.3062 77.1188 53.7851 78.033 54.3075C78.5772 54.6122 79.0778 54.9604 79.6002 55.2869L79.7961 55.0692C79.613 54.6854 79.3706 54.3329 79.0778 54.0245C76.9011 52.5226 74.9639 50.8683 72.1342 51.1077C71.6896 51.0916 71.2496 51.0109 70.8282 50.8682V50.52H73.0049C73.3278 50.5101 73.6488 50.4663 73.9626 50.3894C74.2673 50.3894 74.5285 50.0629 74.8115 50.0629C75.5951 50.0629 76.3569 50.2588 77.1188 50.3894C77.8806 50.52 78.3595 50.607 78.9908 50.7159C78.9908 50.4111 78.9908 50.3241 78.9908 50.3023L73.7884 48.4957C73.3862 48.4074 72.9792 48.342 72.5695 48.2998C72.0253 49.6493 69.5874 48.4304 68.2161 46.6455C69.17 46.5243 70.1354 46.5243 71.0894 46.6455C71.9438 46.9963 72.7488 47.4573 73.4837 48.0168L73.636 47.7991L72.1777 46.4496L78.0112 45.6877C77.2412 45.216 76.3436 44.9955 75.4427 45.0565C73.7449 45.2016 72.0471 45.3322 70.3493 45.4483C70.1367 45.5151 69.9088 45.5151 69.6962 45.4483L67.1495 43.9899L74.2238 43.1627C73.6057 42.865 72.929 42.7089 72.243 42.7057C71.1111 42.7057 70.0663 42.8581 68.8256 42.9451L66.7578 41.3343C68.7147 41.7622 70.7461 41.71 72.6784 41.182C70.1099 40.4202 67.3019 40.8337 64.9293 39.4406L65.3211 39.2229L62.9921 37.8516L68.4338 36.8939V36.6762C68.1219 36.5455 67.7913 36.4647 67.4543 36.4368C66.0612 36.5456 64.6898 36.698 63.2968 36.8504C62.6438 36.8504 62.0126 37.1769 61.3595 37.2204C59.8141 37.3293 58.2904 37.3728 56.745 37.4381C56.5419 37.4486 56.3385 37.4486 56.1355 37.4381V37.3074L58.2033 36.5674V36.2627L54.9166 36.698C56.3976 35.8443 58.1206 35.5074 59.8141 35.7403C60.1409 35.8264 60.4774 35.8702 60.8154 35.8709C60.8154 35.8709 60.9895 35.6749 61.1637 35.479L62.535 35.8273L61.4466 35.0872L65.0599 34.2601C63.6087 33.626 61.9764 33.5409 60.4671 34.0207H61.9037L57.2238 34.8478V34.6737L59.4005 34.1078C57.7463 34.456 56.6361 33.4112 55.4172 32.5405H60.663C60.663 32.3229 60.4671 32.2358 60.3365 32.214C58.9434 31.9528 57.5503 31.6916 56.1355 31.4739C55.0335 31.2667 53.894 31.4274 52.8922 31.9311C52.1456 32.1844 51.3707 32.3452 50.5849 32.4099V32.1487L51.8038 31.8657L48.9742 29.4496V29.3408L52.261 30.6033L51.6515 31.1474C51.8394 31.1721 52.0296 31.1721 52.2174 31.1474C52.8978 30.8369 53.6334 30.6653 54.381 30.6429C55.1285 30.6205 55.873 30.7476 56.5708 31.0168L57.855 31.3869C58.8559 31.5658 59.8879 31.3886 60.7719 30.8862C60.1303 30.7369 59.4697 30.6855 58.8128 30.7339C58.2904 30.7339 57.6592 30.9951 57.2674 30.7339C56.0043 30.1894 54.637 29.9293 53.2622 29.972C52.2827 29.8632 51.2815 29.6891 50.2802 29.5367V29.2755H52.4569L51.978 28.8837L52.6093 28.6225L50.8679 28.2307L56.7014 27.447V27.1858C55.5642 26.6564 54.2758 26.5485 53.0664 26.8811C52.5141 27.124 51.9174 27.2493 51.3141 27.2493C50.7109 27.2493 50.1141 27.124 49.5618 26.8811C49.5618 26.8811 49.3442 26.8811 49.0177 26.8811L49.8884 27.8824L49.736 28.0565C48.6266 26.813 47.1837 25.9141 45.5785 25.4663C45.8497 25.8193 46.1814 26.1214 46.5581 26.3587L49.1048 28.1001L48.9089 28.4701L44.7296 27.4688V27.3382L46.5581 27.5341C45.5568 26.2281 44.0331 26.4458 42.7271 25.8581C43.5201 25.3866 44.4156 25.1145 45.3369 25.0652C46.2581 25.0159 47.1776 25.1909 48.0164 25.5751C47.3536 24.9706 46.6232 24.4447 45.8397 24.0079C45.3555 23.8376 44.8501 23.735 44.3378 23.7031C43.8372 23.5943 43.3583 23.4419 42.6835 23.246C44.1636 22.3318 44.6861 22.3319 46.1227 23.6161C47.5103 24.7854 49.1264 25.6528 50.8679 26.1628C51.2379 26.2934 51.6298 26.3587 51.9998 26.4676V26.2934L50.106 25.1833L53.1752 26.2934L53.3058 25.9887L46.7757 22.136L46.9063 21.6788C47.3536 21.6718 47.8 21.723 48.2341 21.8312C49.9972 22.6148 51.7168 23.529 53.5017 24.2256C54.7463 24.6484 56.0192 24.9829 57.3109 25.2268C57.6077 25.2555 57.9065 25.2555 58.2033 25.2268C58.0727 25.0309 58.051 24.9656 58.0074 24.9656L50.672 22.3101C50.3478 22.2277 50.044 22.0795 49.7795 21.8747C49.5836 21.657 49.4095 21.1782 49.4965 21.0258C49.5836 20.8735 50.0625 20.7429 50.389 20.6993C50.7155 20.6558 50.7373 20.8517 50.9115 20.9387L54.9166 23.0066C55.0983 23.0802 55.2883 23.1313 55.4824 23.1589L55.6348 22.8325L51.4773 20.1987C51.823 20.0651 52.1577 19.905 52.4786 19.7198C53.1098 19.2192 53.5452 19.2845 54.0894 19.9157C55.3301 21.3088 56.6361 22.6801 57.9421 24.0079C58.6959 24.7462 59.6365 25.2655 60.663 25.5098L60.8589 25.2703L55.1342 20.0463C56.4019 20.7804 57.7541 21.3579 59.1611 21.7659L59.3352 21.4611L55.6348 18.958L56.745 18.7403L55.5913 18.4574C56.5273 17.652 57.2456 18.0873 58.0292 18.675C59.0627 19.4585 60.1381 20.1852 61.2507 20.8517C61.4774 20.9772 61.6732 21.1519 61.8238 21.3628C61.9744 21.5736 62.0761 21.8154 62.1214 22.0706C62.5567 23.4855 63.0791 24.8568 63.5797 26.2499C63.6886 26.5111 63.9716 26.707 64.1675 26.9464L64.3851 26.8158C63.928 25.401 63.4927 23.9644 62.9703 22.3101C63.9933 23.246 65.0381 23.7902 65.3429 25.0962C65.6787 26.278 66.1156 27.4286 66.6489 28.5354C66.8042 28.7868 66.9867 29.0204 67.1931 29.2319L67.389 29.1013C66.4965 26.0975 65.6041 23.0719 64.6899 20.0246C65.5714 20.4455 66.3384 21.0729 66.9258 21.8535C67.5131 22.6341 67.9035 23.5449 68.0637 24.5086C68.4045 26.2415 68.8331 27.9561 69.348 29.6455C69.6106 30.3532 69.9462 31.0316 70.3493 31.6698L70.6758 31.5392C70.3057 30.2114 69.9139 28.8619 69.5003 27.36L71.8512 29.9067L72.0906 29.7326C71.8512 28.7966 71.6335 27.8606 71.3941 26.9464C72.2274 28.8067 73.233 30.5848 74.3979 32.2576C74.0061 30.7121 73.4402 29.2537 72.9396 27.7518C72.4389 26.2499 72.0689 24.7697 71.59 23.1807C72.4459 23.4284 73.1968 23.9501 73.7276 24.6657C74.2585 25.3813 74.5398 26.2514 74.5285 27.1423C74.642 28.5669 74.875 29.9795 75.2251 31.3651C75.4716 32.0368 75.7776 32.685 76.1393 33.3023L76.4658 33.1717C76.1175 30.995 75.7692 28.9707 75.4209 26.6417C76.1393 27.447 76.0958 28.6225 77.1623 28.9707L75.3121 25.2703C76.2699 25.7274 77.2059 26.054 77.4888 27.2511C77.7585 28.5369 78.0927 29.8082 78.4901 31.0603C78.7853 31.9615 79.1416 32.8415 79.5566 33.6942C79.7738 34.0017 80.0299 34.2797 80.3185 34.5213L80.645 34.3254L79.5131 30.4945L80.645 31.4957L79.7308 28.2089L80.1444 28.0783C80.3732 28.4695 80.535 28.8963 80.6233 29.3408C80.757 30.7722 81.2431 32.1482 82.0381 33.3459C82.2122 33.6724 82.604 33.8683 82.9088 34.1513L83.1482 33.9336C82.7148 33.1077 82.3296 32.2574 81.9946 31.3869C81.7465 30.4946 81.5646 29.5852 81.4504 28.666C81.7334 29.232 82.0599 29.7544 82.2993 30.3421C82.9741 31.9528 83.5835 33.6071 84.2583 35.2178C84.3671 35.5008 84.7154 35.6967 84.9549 35.9144L85.2814 35.7403C84.563 33.6724 83.8665 31.6263 83.1047 29.5367L83.6488 29.7979C83.2625 28.0589 82.6554 26.3764 81.8422 24.7915C82.4748 25.2089 83.0095 25.7584 83.4094 26.4023C83.9536 27.4035 84.3454 28.579 84.8025 29.5367C84.9331 29.8414 85.0855 30.1461 85.1943 30.4509C85.8038 32.2793 86.4133 34.0859 87.0663 35.8926C87.1751 36.1538 87.5234 36.328 87.741 36.5457L88.0458 36.3498L86.8051 31.9964C87.741 32.7582 88.677 33.1935 88.9818 34.3254C89.2646 34.9959 89.6791 35.6028 90.2007 36.1103C90.4184 36.3497 90.8973 36.3933 91.2455 36.5239L91.3543 36.2627L90.919 35.5008L93.5745 37.3292L91.7679 31.5175L92.0509 31.3869C92.3186 31.7607 92.5587 32.1535 92.7692 32.5623C93.0754 33.3428 93.3299 34.1427 93.531 34.9566C93.8488 36.1789 94.5142 37.2828 95.4465 38.1346C95.6458 38.2717 95.8664 38.3748 96.0995 38.4394L96.2954 38.2652C94.6854 35.3169 93.5401 32.1378 92.8998 28.8401L93.5092 29.0143L92.791 28.1001L92.9651 27.9477C93.7922 28.4048 94.7935 28.6878 94.9241 29.885C95.018 31.1621 95.1778 32.4336 95.403 33.6942C95.793 35.3181 96.28 36.9172 96.8614 38.4829C97.1024 38.9052 97.4778 39.2347 97.9279 39.4188C98.2544 39.5712 98.5809 39.4188 98.4721 38.8747C98.3633 38.3305 98.2327 37.8734 98.1238 37.351C98.2409 37.5812 98.3793 37.7998 98.5374 38.004C98.7551 38.2434 99.0163 38.4611 99.2557 38.7006L99.3863 38.5264C98.951 36.045 98.5157 33.5635 98.0368 30.9298C98.9075 31.278 99.2557 31.7134 99.2557 32.4535C99.2557 33.1935 99.2558 34.2601 99.4081 35.1525C99.5465 36.8408 100.174 38.4521 101.215 39.7889C101.486 40.0304 101.778 40.2488 102.085 40.4419L102.281 40.246C100.939 37.7828 100.194 35.0393 100.105 32.2358H100.388C100.676 32.42 100.917 32.6699 101.091 32.9649C101.265 33.2599 101.367 33.5918 101.389 33.9336C101.423 34.743 101.547 35.5461 101.759 36.328C102.163 37.5839 102.695 38.7948 103.348 39.9413C104.066 40.9835 104.866 41.9662 105.742 42.8798C105.873 43.0322 106.091 43.0757 106.482 43.2933C106.112 41.4432 105.133 39.8978 105.829 37.9823L107.397 40.5943L107.854 39.9195C108.877 42.0962 108.877 42.0962 109.617 41.9438L108.594 38.287L109.66 39.6583L109.834 39.5495C109.247 37.9823 107.941 36.6763 108.137 34.8478C108.384 36.0806 108.972 37.2192 109.834 38.1346L110.139 38.004L108.855 34.4778L109.834 34.9784L114.188 37.6993C114.58 37.9387 114.95 38.1999 115.429 37.6993L113.774 36.328H114.906C113.557 35.0655 111.685 34.8042 110.553 33.4982V33.237L115.777 35.109V34.8913C114.144 33.15 111.706 32.8235 109.813 31.5175C111.056 31.3312 112.326 31.4815 113.491 31.9528C114.384 32.3228 115.276 32.6493 116.169 32.9541C116.526 33.0382 116.89 33.0893 117.257 33.1064V32.8452L115.254 31.2562ZM95.2071 2.95929C96.1213 3.9388 96.9702 4.96185 97.8191 5.98489L97.6667 6.18078C96.6002 5.35364 95.4901 4.54828 94.4888 3.6776C94.3147 3.547 94.3799 3.13342 94.3364 2.85045C94.6847 2.93752 95.0547 2.78516 95.2071 3.00283V2.95929ZM88.1546 4.96184L88.2634 4.76595L90.9626 6.7685C89.7218 6.72497 89.1994 5.52778 88.1546 4.96184ZM92.7474 7.00794L92.5951 7.22559C91.8115 6.65965 91.0061 6.07196 90.1789 5.54956C89.3518 5.02715 88.4811 4.50474 87.6322 3.98234C89.5574 4.66773 91.3208 5.74209 92.8128 7.13853L92.7474 7.00794ZM86.5221 4.02588C86.9139 4.02588 87.2839 4.02586 87.2622 4.67886C87.2622 4.9183 87.7193 5.20129 87.9805 5.41896L89.6783 6.65966L89.5259 6.85555L85.499 4.80946C85.5208 4.19999 86.1085 4.11294 86.5874 4.04764L86.5221 4.02588ZM85.5861 6.7685C84.2929 6.82863 83.0093 6.51906 81.8857 5.87605C83.3876 5.39718 84.4978 6.22432 85.6514 6.79026L85.5861 6.7685ZM82.1252 3.08989C82.234 3.61229 81.5375 4.37412 80.6233 4.74416C80.5362 4.06939 80.8409 3.76465 82.1905 3.11164L82.1252 3.08989ZM80.0573 4.24353C80.0573 4.76594 78.2071 5.94136 77.2711 5.98489L80.0573 4.24353ZM26.1189 26.9464L25.3353 28.4048H25.1177V27.9695L24.4211 28.666C24.617 27.643 24.617 27.6429 26.1842 26.9682L26.1189 26.9464ZM27.4902 34.5213L27.3814 34.739L24.9 33.52L25.0306 33.2588L27.4902 34.5213ZM29.0357 31.1039V31.3869H24.5082C24.7491 31.0544 25.0927 30.8103 25.4861 30.6923C25.8794 30.5743 26.3007 30.5889 26.6849 30.7339C26.7937 30.7339 27.0114 30.7339 27.0767 30.7339C28.0126 29.9285 28.4915 30.8427 29.101 31.0821L29.0357 31.1039ZM26.7284 27.1205L28.165 25.2703L28.4697 25.5098L27.8602 26.5764C28.7744 27.1641 28.9268 25.7057 29.7104 25.8363C29.6334 26.1334 29.4906 26.4093 29.2925 26.6437C29.0944 26.8781 28.8461 27.0649 28.566 27.1904C28.2859 27.3158 27.9812 27.3766 27.6744 27.3682C27.3676 27.3599 27.0666 27.2827 26.7937 27.1423L26.7284 27.1205ZM41.4428 21.7441L41.5516 21.9836C40.115 22.4189 39.0485 23.7031 37.4377 23.7249L37.3289 23.4202L41.4428 21.7441ZM41.6822 24.9874C40.9422 25.7275 40.7028 25.684 39.8103 24.5739L41.6822 24.9874ZM33.8461 26.9246C36.0228 26.0757 36.2405 26.141 37.6771 28.013C38.0036 28.4266 38.2866 28.8837 38.6784 29.4496L33.7808 26.9899L33.8461 26.9246ZM39.9844 32.867L32.1483 27.7083V27.5559C32.5296 27.611 32.9025 27.7133 33.2585 27.8606C35.2392 28.9707 37.1765 30.0373 39.1355 31.2562C39.4694 31.3574 39.751 31.584 39.9214 31.8884C40.0919 32.1927 40.1379 32.5512 40.0497 32.8888L39.9844 32.867ZM37.5247 26.337C38.0689 25.6404 38.5478 25.5098 39.2226 26.2064C39.7098 26.7972 40.106 27.4574 40.398 28.1654C40.593 28.6595 40.7104 29.1808 40.7463 29.7108C40.7885 29.9703 40.7885 30.235 40.7463 30.4945H40.4415L37.5247 26.337ZM41.8781 35.8709C41.3993 34.8914 40.9857 33.9771 40.5286 33.1064C40.0715 32.2358 41.1816 31.3215 41.2469 30.1026C41.9811 30.8701 42.4205 31.8724 42.4876 32.9323C42.4596 33.9219 42.2685 34.9001 41.9217 35.8273L41.8781 35.8709ZM46.3404 37.7863C44.7079 37.6557 44.2725 36.9374 44.7514 35.0655C45.2376 35.3255 45.6453 35.711 45.9324 36.1818C46.2194 36.6525 46.3753 37.1915 46.3839 37.7428L46.3404 37.7863ZM47.3634 35.7838L46.9934 33.6071H47.3416C47.9947 34.2166 47.5811 35.0437 47.6899 35.7838H47.3634ZM47.8423 43.7722C47.7442 43.4474 47.6929 43.1103 47.6899 42.771C47.9076 41.5302 48.147 40.3113 48.43 39.0923C48.43 38.8964 48.8218 38.7658 49.0177 38.6135C49.0177 38.8529 49.1918 39.1141 49.0177 39.31C48.8 40.6813 48.3647 42.0962 47.8858 43.7287L47.8423 43.7722ZM55.7001 53.698V48.2563H56.0484C56.179 48.5392 56.4185 48.8222 56.3967 49.0616C56.2008 50.7812 55.9178 52.5878 55.7436 53.6544L55.7001 53.698ZM56.6797 48.278C56.3749 47.8644 56.8973 46.319 57.6591 45.7313C57.3762 46.5367 57.0714 47.3638 56.7232 48.2345L56.6797 48.278ZM60.4018 42.9451V42.7057C61.5772 42.205 62.5785 42.9233 63.4927 43.511L60.4018 42.9451ZM66.17 55.7876C65.7782 57.333 65.3211 58.8785 64.8858 60.4022H64.494L65.0599 56.7889C64.839 56.4689 64.7207 56.0893 64.7207 55.7005C64.7207 55.3117 64.839 54.9321 65.0599 54.6122L65.6911 56.2229H65.8435V55.1781H66.0394C66.083 55.1781 66.3877 55.4828 66.2136 55.744L66.17 55.7876ZM63.9933 44.6212C65.3429 44.1641 65.7564 45.2742 66.5183 45.7748L66.3442 46.1013L63.9933 44.6212ZM66.17 54.5904L65.2558 52.6749L65.7129 52.479L66.5618 54.3945L66.17 54.5904ZM64.9511 47.6467L66.9101 48.3651C66.0176 48.931 65.9306 48.9092 64.9076 47.6032L64.9511 47.6467ZM68.2814 60.5328H68.0637C67.1713 59.0091 67.0407 57.3113 67.9331 56.963C68.0202 58.1602 68.1291 59.3791 68.2379 60.4893L68.2814 60.5328ZM69.4786 48.0821C69.1832 48.2153 68.8642 48.2883 68.5403 48.2968C68.2163 48.3053 67.8939 48.2491 67.592 48.1316C67.29 48.014 67.0145 47.8375 66.7815 47.6122C66.5486 47.3869 66.3629 47.1175 66.2353 46.8196V46.5802L69.4786 48.0821ZM68.5426 45.6007C67.4107 45.949 66.6925 45.6007 65.8653 44.36C66.3765 44.3418 66.8851 44.4402 67.3527 44.6476C67.8204 44.855 68.2347 45.166 68.5644 45.5571L68.5426 45.6007ZM67.759 42.3574C68.1073 42.5533 68.4991 42.7274 68.8692 42.9016C67.6426 43.071 66.4068 43.1655 65.1688 43.1845C64.3344 43.0692 63.5163 42.8573 62.7309 42.5533L62.8397 42.1615L66.6707 43.0757V42.8145L63.645 41.6173C65.0415 41.3515 66.4869 41.5988 67.7154 42.3139L67.759 42.3574ZM65.0164 40.6814H63.2097C62.6438 40.6814 62.0561 40.6814 61.4031 40.8337C61.892 40.4096 62.5081 40.1602 63.1544 40.1247C63.8007 40.0892 64.4404 40.2698 64.9729 40.6378L65.0164 40.6814ZM63.928 39.2882C62.5223 39.7477 61.0192 39.8228 59.5746 39.5059C59.8082 39.16 60.1182 38.8724 60.4807 38.6654C60.8432 38.4585 61.2485 38.3377 61.6652 38.3124C62.0818 38.2872 62.4987 38.3581 62.8835 38.5198C63.2684 38.6815 63.6109 38.9295 63.8845 39.2447L63.928 39.2882ZM59.8576 46.319C60.38 46.1013 60.7065 45.8401 60.9895 45.9054C61.2724 45.9707 61.2507 46.4278 61.4031 46.7108H60.4671C60.8589 47.4291 61.2289 48.1691 61.6207 48.8875L57.2674 43.794C57.2674 43.794 57.2674 43.5981 57.2674 43.3151L58.5952 44.73L58.7911 44.2076C59.2046 45.0783 59.0958 46.1013 59.8576 46.319ZM58.7911 42.7492C57.5286 41.3996 56.2878 40.0284 55.0254 38.657C56.6162 39.657 57.921 41.0518 58.8128 42.7057L58.7911 42.7492ZM55.1342 40.5725L56.3967 42.4227L56.1137 42.6186L54.786 40.8337L55.1342 40.5725ZM56.7885 34.0424C56.4792 34.2711 56.1148 34.4137 55.7324 34.4558C55.3501 34.4978 54.9634 34.4379 54.6118 34.2819C53.8935 34.0207 53.2187 33.6724 52.544 33.3676C53.9371 32.214 55.3301 32.4099 56.8103 33.9771L56.7885 34.0424ZM51.1509 37.6122C51.1509 39.1359 52.3045 39.7889 53.1317 40.7684H53.3711V39.2229H53.567C53.8717 40.1589 54.1982 41.1167 54.5465 42.1615C54.2736 42.1035 54.0099 42.0083 53.7629 41.8785C52.7616 41.0731 51.7603 40.2895 50.8026 39.4406C50.6207 39.2163 50.5073 38.9442 50.4761 38.657C50.4761 38.657 50.672 38.4611 50.9332 38.2217L49.366 37.5469V37.3728L49.8666 37.5034L50.019 36.5457C50.3082 36.5452 50.5866 36.6554 50.7971 36.8537C51.0076 37.0521 51.1342 37.3235 51.1509 37.6122ZM50.4979 31.0821C49.7143 31.4304 49.7142 31.4304 47.124 30.2332C48.1905 29.5802 49.3006 29.885 50.5196 31.2127L50.4979 31.0821ZM46.1445 28.6007L47.5375 29.2537L47.3416 29.602L46.0139 28.8837L46.1445 28.6007ZM44.882 33.0847L45.6873 31.4957L45.4261 34.4778C44.2943 33.0629 42.8359 31.9964 42.9883 30.0156C43.5107 31.0822 43.5759 32.4317 44.8602 33.2588L44.882 33.0847ZM44.0113 28.4919L43.6848 28.7966L42.0305 27.0552L42.27 26.8158L44.0113 28.4919ZM49.0177 10.8607C49.2789 10.1859 49.5619 9.48937 49.8448 8.8146C49.8665 9.07535 49.8665 9.33745 49.8448 9.59821L47.4287 17.1731C47.4122 17.3177 47.4122 17.4638 47.4287 17.6084L48.147 17.4343V17.5431L45.9703 18.8056C46.9716 16.3459 47.9729 13.6686 48.9742 10.9913L49.0177 10.8607ZM46.2533 14.3869L46.5363 14.4958L45.3608 17.7608L45.0561 17.652L46.2533 14.3869ZM44.6208 20.7864L44.4249 20.5687C44.6643 20.3293 44.9037 19.894 45.1432 19.8722C46.8082 19.5757 48.3941 18.9384 49.8013 18.0002C50.0971 17.9551 50.398 17.9551 50.6938 18.0002V18.2397L44.6208 20.7864ZM78.7078 17.5214C77.7392 18.3579 76.4804 18.7801 75.2033 18.6968L76.4876 17.6737L75.8563 17.3254C76.2058 17.3172 76.5515 17.251 76.8794 17.1295C77.1922 16.9801 77.549 16.9508 77.882 17.0471C78.2151 17.1434 78.5011 17.3587 78.686 17.652L78.7078 17.5214ZM77.2059 16.3459L75.8345 17.3254L75.0509 17.0425C76.4005 16.2153 76.7705 16.1065 77.2711 16.4765L77.2059 16.3459ZM75.0292 17.4561C73.8102 18.2614 72.8525 18.3267 71.9818 17.6084C73.0919 17.1295 74.0714 16.7377 75.0945 17.5867L75.0292 17.4561ZM69.5439 16.5419C68.2161 15.6059 66.7578 14.8223 65.3211 13.9516C66.4095 13.4292 66.4313 13.4945 67.3019 14.3216C67.7353 14.6058 68.2256 14.7915 68.7385 14.8658L72.1777 15.9324C72.512 16.0509 72.8391 16.189 73.1572 16.3459C72.6797 16.775 72.0765 17.0385 71.4373 17.0973C70.7981 17.1561 70.157 17.0072 69.6092 16.6725L69.5439 16.5419ZM74.7462 13.8427C75.0509 14.3216 75.6821 14.5828 76.161 14.9528V15.127L71.8076 12.4932C72.3987 12.4139 73 12.5123 73.5349 12.7759C74.0699 13.0395 74.5143 13.4563 74.8115 13.9733L74.7462 13.8427ZM76.074 7.16029L76.2699 7.44327L74.7027 8.50986L74.5721 8.31393L76.074 7.16029ZM75.0945 11.4919C74.1367 11.6008 73.3313 11.6225 72.7654 10.7954C73.7231 10.2512 74.1802 10.3818 75.0945 11.4919ZM73.3749 4.13469C73.5032 5.5163 73.1155 6.8965 72.2865 8.0092C71.9298 7.35492 71.8371 6.58894 72.0274 5.86844C72.2176 5.14795 72.6764 4.5276 73.3096 4.13469H73.3749ZM72.526 11.9708L70.3493 11.6661C71.6335 10.8824 71.6335 10.8824 72.4607 11.9708H72.526ZM71.3941 6.59436C71.7859 8.66222 71.6988 8.77104 70.0881 9.16284L71.3941 6.59436ZM70.8064 12.8197L75.9651 15.6929C75.2468 16.0194 74.8333 16.6724 73.8973 15.9106C72.8089 15.1546 71.6498 14.5059 70.4363 13.9733V13.7557L71.0023 13.6251C70.0881 13.2333 68.9344 13.6251 68.1508 12.7326C68.5416 12.4861 68.9975 12.3626 69.4593 12.3781C69.9211 12.3936 70.3677 12.5475 70.7411 12.8197H70.8064ZM68.8909 5.52777C68.8909 6.72495 68.8909 7.8133 68.8909 8.90165C68.9024 9.19946 68.8082 9.49177 68.625 9.72681C68.4417 9.96185 68.1812 10.1244 67.8896 10.1859C67.6423 8.57138 67.9738 6.92141 68.8256 5.52777H68.8909ZM67.6501 11.4484C66.8665 11.9055 66.1047 12.3843 65.1688 12.972C65.1688 12.602 65.0382 12.2538 65.1688 12.2102C65.9306 11.7967 66.7142 11.4266 67.476 11.0566L67.6501 11.4484ZM66.2789 9.55466H66.4965L66.8013 10.7518L65.8217 11.1654L66.2789 9.55466ZM60.9678 4.63535C61.6296 4.52367 62.2838 4.371 62.9268 4.17823C62.5785 6.35492 62.2737 8.20512 61.8819 10.1424C61.8819 10.4689 61.3813 10.7301 61.1201 11.013L60.9242 10.8607C60.861 8.68372 61.4525 6.53787 62.622 4.70065L62.4044 4.54827L59.7923 6.28963C59.727 5.37542 59.8576 4.72242 60.9025 4.63535H60.9678ZM63.3621 9.61996C63.4525 9.89709 63.4863 10.1896 63.4616 10.48C63.4368 10.7705 63.354 11.053 63.218 11.3108C63.082 11.5687 62.8955 11.7965 62.6698 11.981C62.444 12.1654 62.1835 12.3025 61.9037 12.3844L63.3621 9.61996ZM60.2277 2.48042C59.8359 4.11293 58.3557 3.52524 57.4197 4.09118V3.89525L60.2277 2.48042ZM57.2456 4.87479L57.4415 5.11423L55.3954 6.74675L55.1777 6.50731L57.2456 4.87479ZM55.0689 4.87479C54.6553 6.00667 54.307 6.89911 53.9152 7.96569C53.8265 7.42316 53.8692 6.86727 54.0396 6.34463C54.2101 5.82198 54.5033 5.3478 54.8948 4.96184L55.0689 4.87479ZM56.6579 8.37926V9.16284L55.2648 9.77234L53.9152 10.36L53.8064 10.0988L56.6579 8.37926ZM53.8935 10.6866L53.1534 12.3844H52.914C52.8487 11.7096 52.4786 10.9478 53.7193 10.6866H53.8935ZM53.7411 12.1014C53.8337 11.9637 53.9138 11.818 53.9805 11.6661C54.4376 10.2947 54.6553 10.1206 56.1572 10.0988C54.3941 10.7736 53.9806 12.5585 52.7399 13.821L53.7411 12.1014ZM56.0702 13.0809C55.7047 13.6705 55.2577 14.2055 54.7424 14.6699C54.4376 14.9093 53.8282 14.6699 53.3711 14.6699V14.4087L56.1355 10.4253C56.3957 10.8319 56.5133 11.3134 56.47 11.7941C56.4266 12.2748 56.2247 12.7274 55.896 13.0809H56.0702ZM53.3275 16.5201C53.6343 16.436 53.9126 16.2705 54.1329 16.0412L52.914 15.6276C53.654 14.9746 54.3288 15.8888 54.8077 15.4753L56.2878 13.4292C57.0279 14.2998 57.0279 14.2999 55.4824 15.4535L56.1355 15.78L54.6118 16.0194C54.6118 16.6507 54.6118 16.6507 52.5875 16.8248L53.3275 16.5201ZM52.5657 17.9349C53.1316 17.4343 53.5017 16.9554 54.1982 17.1513C54.8948 17.3472 55.6348 16.6289 56.3749 16.2806L57.4632 15.78L57.5938 16.1283C56.101 17.1826 54.3619 17.8348 52.544 18.022L52.5657 17.9349ZM57.6809 8.0092C57.6809 9.94645 57.8986 12.0361 58.0074 14.1039C57.4607 13.1915 57.1452 12.1593 57.0883 11.0971C57.0314 10.0349 57.2348 8.97485 57.6809 8.0092ZM57.0715 7.00794L56.6579 6.26787L59.2917 4.52651C59.1773 5.11096 58.9032 5.65227 58.4997 6.09031C58.0963 6.52836 57.5793 6.846 57.0062 7.00794H57.0715ZM58.6605 8.55337C58.6605 7.33442 59.5747 6.79025 60.7066 6.37668C60.7066 6.72495 60.7066 6.9644 60.7066 7.20383C60.4889 8.57515 60.2276 9.94645 60.097 11.3395C60.0469 11.7821 59.8976 12.2078 59.6602 12.5846C59.4228 12.9615 59.1034 13.28 58.7258 13.5162C58.5734 11.6007 58.5516 10.0771 58.5952 8.55337H58.6605ZM61.686 20.1552L58.7258 17.9784V17.6955C59.096 17.5577 59.4849 17.4769 59.8794 17.4561C61.2507 17.7826 61.7731 18.675 61.6207 20.1987L61.686 20.1552ZM60.9025 15.6929C61.4466 14.9964 61.9037 14.9529 62.4261 15.5841L60.9025 15.6929ZM63.0791 19.8722C62.0779 20.0899 62.2084 19.3715 62.0996 18.7403C63.2097 18.8926 63.7104 19.8069 64.2763 22.6801C62.9703 21.853 62.3608 20.634 63.1009 19.8722H63.0791ZM62.905 9.40228C63.2097 7.74799 63.4056 6.1155 63.8409 4.52651C63.8409 4.17824 64.7769 4.00411 65.4299 3.6776C65.5473 4.75462 65.3776 5.84349 64.9379 6.83367C64.4983 7.82384 63.8044 8.68002 62.9268 9.31522L62.905 9.40228ZM64.864 15.4753V15.2576C65.0576 15.26 65.2492 15.2969 65.4299 15.3664C66.8666 16.1718 68.3032 16.9772 69.7833 17.8043C69.8922 17.8043 69.7833 18.1526 69.9139 18.3485L65.9306 16.1718C65.6041 15.8453 65.234 15.6929 64.8858 15.4753H64.864ZM66.1047 18.4791C67.476 18.4791 68.6732 17.6737 69.9357 18.3485C69.359 18.6777 68.7109 18.8616 68.0472 18.8843C67.3836 18.9071 66.7244 18.768 66.1265 18.4791H66.1047ZM70.0663 26.9464L68.042 21.4176L68.3467 21.3088C69.3207 23.028 70.0046 24.8959 70.371 26.8376L70.0663 26.9464ZM71.0458 24.4868L70.0881 22.3101L70.4146 22.1795C70.6758 22.876 70.9588 23.5943 71.2417 24.3562L71.0458 24.4868ZM71.3723 18.3921L71.5247 18.0873L72.9613 18.8056L72.7654 19.1538L71.3723 18.3921ZM72.0906 20.3946C73.1699 19.5891 74.5214 19.2376 75.8563 19.4151C75.35 19.856 74.7487 20.1738 74.0992 20.3437C73.4497 20.5136 72.7697 20.531 72.1124 20.3946H72.0906ZM78.2071 26.1846L74.485 23.2243C75.7257 23.0502 75.6604 23.0719 76.2046 23.8991C76.6029 24.4173 77.0553 24.8915 77.5541 25.3139L78.3595 25.9887L78.2071 26.1846ZM79.2955 26.5982C79.0115 26.2877 78.7899 25.9256 78.6425 25.5316L78.4683 23.812C78.8819 24.1167 79.2302 24.2691 79.3825 24.5521C79.5349 24.835 79.8397 25.8146 80.1444 26.4023C80.4491 26.99 80.7756 27.3165 81.0586 27.7736C81.1755 28.0261 81.2702 28.2882 81.3415 28.5572C80.6668 27.9042 79.9703 27.2729 79.3172 26.5982H79.2955ZM81.8639 28.1872C81.4504 26.99 81.0151 25.7928 80.5362 24.4868C81.1892 24.748 81.9075 26.7288 81.8857 28.1872H81.8639ZM107.723 23.8338C107.301 24.7171 106.663 25.4795 105.868 26.0503C105.072 26.6211 104.146 26.9818 103.174 27.0988C104.42 25.6719 105.986 24.5604 107.745 23.8555L107.723 23.8338ZM104.262 33.4547C103.239 33.0629 102.434 32.5623 102.651 31.278C103.043 32.1269 104.458 32.1923 104.284 33.4765L104.262 33.4547ZM95.5553 22.7672L95.773 23.0937C95.3159 23.3549 94.8806 23.6378 94.4453 23.9208L94.2493 23.5943L95.5553 22.7672ZM93.3786 20.5905C93.1392 20.7428 92.9433 20.8952 92.7257 21.004C91.514 21.5151 90.4508 22.3237 89.6347 23.3549C89.4015 23.5513 89.1458 23.7194 88.8729 23.8555C89.4824 22.1142 91.9856 20.4164 93.2481 20.6776L93.3786 20.5905ZM89.4388 20.8734L89.5912 21.1346C88.7859 21.7441 88.0023 22.3971 87.1533 22.9631C87.001 23.0719 86.6745 22.9631 86.4133 22.8542V22.5931L89.4388 20.8734ZM85.8691 26.424L84.4325 25.0962C85.3467 25.0527 85.7385 25.4227 85.7385 26.5111L85.8691 26.424ZM84.6937 26.424L84.9984 26.2499C85.6949 27.3165 86.3697 28.4266 87.0445 29.4496L86.7833 29.6237C85.4773 28.9054 85.3685 27.5123 84.5631 26.5111L84.6937 26.424ZM87.3275 34.739C86.5438 32.7146 85.782 30.6903 84.9549 28.4919C86.4785 30.4509 86.5003 32.78 87.1969 34.826L87.3275 34.739ZM86.5874 30.255C88.1328 30.255 88.3941 30.4944 88.5029 32.1705L86.5874 30.255ZM87.8934 27.73C89.1777 28.6878 90.7448 29.2972 90.919 31.278C91.0874 32.2776 91.3648 33.2556 91.7461 34.1948C89.33 32.867 89.0471 30.0591 87.7628 27.8171L87.8934 27.73ZM92.9434 31.3651C92.3224 30.8755 91.8087 30.2635 91.4343 29.567C91.0598 28.8705 90.8326 28.1044 90.7667 27.3164C91.7026 27.3164 92.0073 27.5341 92.1379 28.4048C92.2685 29.2755 92.2903 29.8849 92.4209 30.5815C92.5053 30.8904 92.6375 31.1842 92.8128 31.4522L92.9434 31.3651ZM90.7667 25.0309L92.6604 24.8568V25.1833H90.7667V25.0309ZM91.0931 23.9208C91.108 23.4716 91.2404 23.0342 91.4772 22.6522C91.7141 22.2703 92.047 21.9571 92.4427 21.7441C93.2481 21.287 94.0099 20.6993 94.8806 21.2652C94.5105 21.5917 94.1405 21.94 93.7269 22.2448C92.8668 22.8802 91.9731 23.4687 91.0496 24.0079L91.0931 23.9208ZM93.4875 25.8145L96.2737 24.3127C96.2331 24.6252 96.12 24.9239 95.9436 25.185C95.7672 25.4462 95.5322 25.6626 95.2573 25.8169C94.9825 25.9712 94.6755 26.0592 94.3607 26.0739C94.0459 26.0886 93.7319 26.0296 93.4439 25.9016L93.4875 25.8145ZM98.1456 36.1538C98.1784 36.5304 98.1784 36.9091 98.1456 37.2857L97.4926 34.6302L97.7756 36.6762H97.6232L95.8601 31.5392L96.339 32.1052H96.5131C96.2954 31.191 96.0995 30.255 95.8818 29.2319C96.7525 29.8196 97.4926 30.255 97.3185 31.4086C97.2764 33.0541 97.5422 34.693 98.1021 36.2409L98.1456 36.1538ZM95.3812 24.5521L95.1853 24.3344C96.03 23.3464 97.1179 22.5961 98.3415 22.1577L98.4721 22.3536L95.3812 24.5521ZM98.298 25.2268C99.0686 24.0705 100.252 23.2528 101.607 22.9413L98.4286 25.4227L98.298 25.2268ZM101.563 32.2576L98.5157 30.0809L98.6245 29.8414L100.801 30.8862L100.213 29.4931C100.845 29.7108 101.476 29.8632 101.411 30.7992C101.476 31.2571 101.624 31.6995 101.846 32.1052L101.563 32.2576ZM100.192 26.9029L103.087 25.7275C102.194 27.2512 101.607 27.5124 100.192 26.8811V26.9029ZM102.368 33.4329C103.391 34.3471 104.719 34.826 104.763 36.4368C104.806 38.0475 104.893 39.1576 104.98 40.5072C103.399 38.4587 102.453 35.9917 102.26 33.4112L102.368 33.4329ZM105.285 33.1717L104.719 31.4086C105.329 31.6481 105.438 31.9963 105.176 33.2588L105.285 33.1717ZM105.503 29.5367H107.527C107.266 30.2115 106.33 30.3203 105.394 29.5149L105.503 29.5367ZM106.548 32.1705C106.678 32.3664 106.939 32.5405 106.939 32.7364C106.859 34.7945 107.109 36.8522 107.68 38.8312C106.412 36.8501 105.967 34.4528 106.439 32.1487L106.548 32.1705ZM104.872 28.8619L109.225 26.9899C108.873 27.8237 108.211 28.4887 107.379 28.8458C106.548 29.2029 105.61 29.2242 104.763 28.9054L104.872 28.8619ZM110.335 30.0591V29.8414L114.166 29.3408V29.5584L110.335 30.0591Z" fill="white"/>
<path d="M43.055 187.804L42.4455 188.13L45.014 188.674L42.7067 189.915C43.0476 190.094 43.4047 190.24 43.7733 190.351C45.6706 190.586 47.5966 190.331 49.3674 189.61C49.0529 190.245 48.6004 190.801 48.0429 191.238C47.4855 191.675 46.8373 191.982 46.1459 192.135C45.0794 192.288 43.9693 192.527 42.9462 192.723L42.2279 192.963V193.18H46.0371L44.0563 195.074L44.2522 195.292C45.1811 194.784 46.0377 194.155 46.7989 193.42C47.3605 193.052 47.9679 192.759 48.6056 192.549C49.0415 192.436 49.4854 192.356 49.9334 192.31L51.6312 191.918V192.135L48.8885 192.81V192.984L51.2176 192.658L47.9744 196.728L48.1267 196.924L48.9538 196.641C49.9551 196.293 50.9781 196.053 51.9359 195.618C53.2637 195.009 54.5262 194.225 55.8322 193.441C56.507 193.115 57.2035 192.876 58.0089 192.593C56.8953 194.106 55.3902 195.288 53.6555 196.01C53.1205 196.241 52.61 196.526 52.1318 196.859C52.0012 196.859 52.1318 197.251 51.9795 197.447C52.1509 197.49 52.3304 197.49 52.5018 197.447C53.193 197.155 53.8687 196.828 54.5262 196.467C55.2662 196.032 55.9845 195.509 56.7028 195.009V195.139L54.1997 197.468L54.352 197.664L56.1152 196.598L54.352 198.622L54.5915 198.861C55.1792 198.382 55.7451 197.904 56.3764 197.468C56.6352 197.305 56.9452 197.243 57.247 197.294C58.1675 197.632 59.178 197.632 60.0985 197.294C60.2508 197.294 60.4686 197.294 60.8386 197.294C58.1177 198.905 57.9218 199.101 58.2701 199.993C59.3366 199.275 60.4468 198.535 61.4263 197.817C62.4058 197.098 62.9935 197.185 63.4942 198.361C62.5358 198.628 61.6552 199.121 60.9256 199.797L61.0345 200.08L65.0831 199.014V199.253L64.0601 200.167L64.1689 200.363L67.7605 199.036L65.5838 200.69L65.8015 200.973C66.1497 200.777 66.5197 200.625 66.8462 200.407C67.6081 199.906 68.3264 199.384 69.0229 198.905C70.6064 198.119 72.0718 197.116 73.3763 195.923C73.6375 195.662 74.2035 195.705 74.617 195.596L74.7694 195.945L72.9845 197.185C73.4291 197.088 73.8895 197.088 74.3341 197.185C74.7259 197.316 75.0088 197.773 75.3571 198.1C75.1433 198.325 74.902 198.522 74.6388 198.687C73.1369 199.427 71.6132 200.102 70.0895 200.864C69.6632 201.115 69.2622 201.406 68.8923 201.735L69.0447 201.974L71.4608 200.886L70.5901 202.301L70.8078 202.453C71.0804 202.329 71.3425 202.184 71.5915 202.018C73.0063 201.103 74.4647 200.254 75.7925 199.231C77.4742 198.242 79.4196 197.794 81.3648 197.947C81.3648 197.947 81.3648 197.947 81.5389 198.1C80.2645 199.262 78.6735 200.02 76.9678 200.276L77.9474 199.645C77.3068 199.563 76.6581 199.713 76.1189 200.069C75.5797 200.424 75.1859 200.961 75.0088 201.582L77.512 201.169C78.7092 200.951 78.9922 201.169 79.2969 202.453C78.7963 202.453 78.3174 202.584 77.8168 202.692L76.3801 203.062V203.432L78.1868 203.998L78.0127 203.432C80.1894 203.019 81.06 203.432 82.4966 205.435C81.6695 205.217 81.06 204.434 80.1894 204.63L80.0806 204.891L83.7374 206.915C82.9102 206.915 82.1049 207.22 81.5607 206.306C81.2313 205.882 80.7848 205.564 80.2764 205.391C77.8386 204.412 75.3571 203.498 72.8974 202.584C72.5823 202.514 72.2619 202.47 71.9397 202.453L82.5184 208.744V209.114C82.0503 209.238 81.5657 209.29 81.0818 209.266C80.32 209.157 79.754 208.569 78.9051 208.439C78.3779 208.24 77.8966 207.937 77.4903 207.546C75.5004 206.114 73.2965 205.004 70.9602 204.26C70.2449 204.086 69.5171 203.97 68.7835 203.911C68.9794 204.173 69.0012 204.26 69.0665 204.281C69.3349 204.436 69.6196 204.56 69.9154 204.651C71.9263 205.269 73.8232 206.21 75.5313 207.438C76.3573 208.175 77.3286 208.731 78.3827 209.07C78.7701 209.231 79.1299 209.451 79.4493 209.723C78.5351 210.333 78.4698 210.311 77.6644 209.571C76.6123 208.507 75.3426 207.682 73.9423 207.155L77.8821 210.55V210.833C77.1441 210.816 76.4119 210.699 75.7054 210.485C73.5287 209.418 71.5043 208.156 69.3494 207.133C67.9352 206.513 66.4808 205.989 64.996 205.566C64.6865 205.511 64.3696 205.511 64.0601 205.566V205.805C67.6504 206.989 70.9874 208.835 73.8988 211.247C73.2201 211.204 72.5443 211.124 71.8744 211.007C69.0194 210.433 66.2219 209.602 63.5159 208.526C63.0523 208.326 62.5601 208.202 62.0576 208.156C61.7828 208.124 61.5052 208.124 61.2304 208.156V208.308L67.2163 211.073V211.29L60.8168 209.114C60.4397 208.947 60.032 208.861 59.6197 208.861C59.2074 208.861 58.7995 208.947 58.4224 209.114C62.7758 210.289 65.6491 213.467 69.1318 215.883C68.7229 215.971 68.3 215.971 67.8911 215.883C66.2305 215.291 64.8241 214.146 63.9077 212.64L63.7118 212.814L65.1049 214.49C62.384 213.206 60.2944 210.877 57.2253 210.137L57.9654 210.92C56.5626 210.231 54.9781 210.003 53.4378 210.267C56.4634 211.051 59.489 211.791 61.1868 214.991L58.6183 213.641L58.5095 213.794L58.7272 214.316C58.1982 214.41 57.6542 214.374 57.1422 214.211C56.6302 214.048 56.1657 213.763 55.7887 213.38C54.4565 212.246 52.8633 211.46 51.1523 211.094C50.6517 211.094 50.1293 210.986 50.0858 211.791C52.0786 212.301 53.8419 213.466 55.0921 215.1L52.6324 215.274C54.7003 215.948 56.9859 216.014 58.7272 217.799H61.1868C60.1638 217.189 59.4237 216.144 58.4007 215.622C59.8861 215.995 61.2504 216.745 62.3623 217.799H64.1254L62.1664 216.58L66.0844 217.015V217.755H67.9564C69.021 217.097 70.2041 216.653 71.4391 216.449C72.005 217.102 71.4391 217.32 71.0037 217.69C70.8514 217.124 70.5249 217.102 70.0243 217.32L69.0665 217.733H70.5684C70.7127 217.711 70.8595 217.711 71.0037 217.733H74.2035C74.2035 216.623 74.53 216.166 75.466 215.905C75.4489 216.54 75.2929 217.165 75.0088 217.733H77.8386L78.0127 216.667L77.4032 217.668C77.2595 217.18 77.2796 216.658 77.4604 216.182C77.6412 215.707 77.9728 215.304 78.4045 215.034L78.1215 216.406L79.0575 215.034L79.384 215.208L78.4045 217.712H80.8206C81.0165 216.645 81.3213 215.535 81.5825 214.534L80.9077 215.078C80.8859 214.342 81.0805 213.615 81.4674 212.988C81.8542 212.362 82.4165 211.862 83.0844 211.552L81.8219 213.989C81.8219 214.098 82.0613 214.229 82.0396 214.316C81.8872 215.317 81.6913 216.297 81.5389 217.298V217.733H82.3443C82.6055 216.406 82.845 215.078 83.0844 213.75C83.106 213.403 83.2563 213.077 83.506 212.835C83.7557 212.594 84.0866 212.454 84.4339 212.444C84.151 214.272 83.3238 215.948 82.8884 217.712H83.8027L84.5863 215.383C84.7789 215.759 84.8428 216.189 84.7681 216.606C84.6934 217.022 84.4843 217.403 84.1727 217.69H85.6964C85.6964 217.407 85.8052 217.146 85.8488 216.863C85.8923 216.58 85.8488 216.34 86.0447 216.231C87.3507 215.23 87.5901 213.619 88.3737 212.313C88.4163 212.222 88.4674 212.134 88.5261 212.052H88.7873C88.6132 213.315 88.4608 214.555 88.2867 215.796C88.2867 216.384 88.1125 216.972 88.0037 217.559H89.2226C89.375 216.972 89.5056 216.384 89.658 215.796C89.8103 215.208 89.8103 214.686 89.9192 214.142C89.9491 213.955 90.0322 213.781 90.1586 213.641C90.7899 213.119 91.4646 212.618 91.9871 212.226C91.8474 213.64 91.6147 215.044 91.2905 216.427C91.1943 216.801 91.0322 217.155 90.8116 217.472H91.6823C91.8669 217.093 92.0932 216.735 92.3571 216.406C92.6223 216.208 92.9408 216.094 93.2713 216.079C93.9075 216.155 94.5506 216.155 95.1868 216.079C96.0139 215.796 96.5146 216.079 97.2329 216.754C96.6548 216.967 96.0421 217.07 95.4262 217.059C94.4442 216.852 93.4233 216.935 92.4877 217.298L91.7912 217.472C93.2452 217.427 94.7005 217.493 96.1445 217.668L97.7553 217.842L105.352 213.989V211.813H105.57V213.989L107.093 213.228C107.093 213.053 107.093 212.879 107.093 212.705L107.224 213.162L107.724 212.923C106.822 209.802 107.085 206.46 108.465 203.52C108.6 203.299 108.769 203.1 108.965 202.932C109.114 203.244 109.152 203.597 109.074 203.933C108.861 205.291 108.571 206.636 108.203 207.96C107.961 208.544 107.857 209.175 107.899 209.805C107.94 210.436 108.126 211.048 108.443 211.595C108.576 211.848 108.692 212.11 108.791 212.379L109.205 212.161C109.037 211.571 108.803 211.001 108.508 210.463C110.098 209.587 111.438 208.321 112.404 206.785C113.057 205.544 113.797 204.368 114.472 203.128C114.665 202.703 114.832 202.267 114.973 201.822C115.212 201.299 115.474 200.799 115.735 200.276C115.619 201.376 115.347 202.453 114.929 203.476C114.494 204.477 113.819 205.348 113.297 206.306C113.036 206.763 112.862 207.263 112.644 207.742L112.992 207.96C113.567 207.389 114.091 206.77 114.559 206.11C115.386 204.717 116.039 203.215 116.845 201.756C117.65 200.298 118.564 199.123 119.435 197.795L119.718 197.947C119.599 198.334 119.454 198.712 119.283 199.079L115.735 205.261C115.386 205.87 115.06 206.502 114.733 207.111L115.038 207.351C115.782 206.693 116.46 205.964 117.063 205.174C118.064 203.563 118.934 201.865 119.805 200.167C120.262 199.297 120.654 198.383 121.068 197.447L120.806 197.229L124.92 195.509V195.335L123.484 195.749L123.331 195.466L124.311 194.769C125.138 194.203 125.29 195.292 125.9 195.4L124.159 196.184V196.358H124.768C124.18 197.359 123.636 198.339 123.114 199.319C122.591 200.298 122.069 201.234 121.568 202.192L121.307 202.779L122.722 201.713C124.166 199.517 125.46 197.226 126.596 194.856C127.032 194.856 127.206 195.052 127.119 195.596C127.032 196.141 126.988 197.229 126.901 198.056C126.922 198.23 126.922 198.405 126.901 198.578C127.75 197.664 128.686 196.772 129.622 195.923C129.731 194.965 130.101 194.508 130.863 194.486L130.406 195.205C131.506 194.248 132.546 193.223 133.518 192.135C135.959 189.721 138.229 187.139 140.31 184.408C140.073 184.463 139.828 184.463 139.591 184.408C137.415 183.668 135.238 182.732 133.061 181.84L130.885 180.904L130.667 181.252C131.357 181.868 132.084 182.442 132.844 182.972C133.652 183.35 134.48 183.684 135.325 183.973C135.667 184.196 135.988 184.451 136.283 184.735C136.786 184.636 137.306 184.675 137.788 184.848C138.271 185.02 138.698 185.32 139.025 185.714L138.089 186.041C137.828 185.453 137.676 185.322 136.892 185.562C136.41 185.698 135.904 185.729 135.409 185.654C134.913 185.579 134.439 185.399 134.019 185.126C132.408 184.299 130.667 183.733 129.013 182.95C127.358 182.166 127.576 182.231 126.27 183.059L130.036 184.386V184.517L128.708 184.234C129.202 184.822 129.813 185.3 130.503 185.637C131.193 185.974 131.946 186.164 132.713 186.193C132.329 186.318 131.936 186.413 131.537 186.476C131.202 186.482 130.87 186.549 130.558 186.672C130.199 186.923 129.763 187.036 129.327 186.992C128.892 186.948 128.487 186.75 128.185 186.432C126.306 184.927 124.176 183.763 121.895 182.993C121.568 183.581 121.677 183.777 122.461 184.19C123.919 184.974 125.356 185.779 126.814 186.585C127.028 186.739 127.231 186.906 127.424 187.086C125.095 187.086 123.07 185.584 120.785 185.867V186.171L128.207 188.74L127.228 189.306L129.774 189.893C127.902 190.307 126.248 191.025 124.681 189.632C124.311 189.306 123.832 189.11 123.44 188.805C121.721 187.477 120.023 186.171 118.347 184.822C117.769 184.489 117.302 183.994 117.004 183.398C116.706 182.802 116.59 182.131 116.671 181.47C116.758 181.053 116.758 180.624 116.671 180.207C116.453 179.337 116.17 178.466 115.909 177.595H115.561C115.561 177.965 115.561 178.335 115.561 178.705C115.561 179.075 115.561 179.293 115.561 179.315C115.016 179.315 115.234 179.728 115.321 179.968C115.535 180.714 115.562 181.502 115.398 182.262C115.235 183.021 114.887 183.728 114.385 184.321C114.385 183.603 114.276 183.102 114.233 182.58C114.243 182.173 114.127 181.772 113.901 181.433C113.675 181.095 113.35 180.834 112.97 180.686C111.686 180.36 111.686 180.36 111.795 179.01C111.795 178.509 111.926 178.009 111.969 177.508C111.969 176.18 112.187 174.831 112.187 173.503C112.197 173.031 112.107 172.562 111.923 172.126C111.739 171.691 111.466 171.3 111.12 170.978V172.937C110.576 172.045 110.576 170.913 109.509 170.303C110.234 173.399 109.792 176.654 108.269 179.445C107.833 179.141 107.42 178.858 107.006 178.509C106.89 178.402 106.819 178.254 106.81 178.096C106.842 176.312 106.973 174.532 107.202 172.763C107.65 171.029 107.754 169.225 107.507 167.452C107.35 166.887 107.153 166.335 106.919 165.797H106.614C106.85 169.553 106.099 173.305 104.438 176.681C104.167 176.047 103.847 175.436 103.48 174.852C103.335 174.668 103.238 174.449 103.2 174.217C103.162 173.984 103.184 173.746 103.262 173.525C103.894 171.348 104.568 169.367 105.091 167.256C105.25 166.41 105.302 165.547 105.243 164.687C105.2 164.41 105.104 164.144 104.96 163.904H104.786L104.176 166.08H103.959C104.029 165.31 103.935 164.534 103.684 163.802C103.432 163.071 103.029 162.401 102.5 161.836C102.045 163.681 101.812 165.573 101.804 167.474C101.436 169.385 100.775 171.228 99.8449 172.937C99.2386 172.43 98.7538 171.793 98.4261 171.073C98.0983 170.354 97.936 169.57 97.9512 168.78C98.1035 167.299 98.43 165.841 98.6041 164.426C98.7783 163.011 98.9089 161.553 98.996 160.073C98.996 159.768 98.7783 159.463 98.6694 159.159H98.4518L97.9947 162.445C97.8028 160.79 97.3549 159.174 96.6669 157.657C96.8628 161.183 97.0587 164.557 97.2546 168.061L96.3622 167.604C96.2098 168.475 96.0792 169.28 95.9486 170.064H95.5786C95.3877 169.246 95.2496 168.417 95.165 167.582C95.0562 165.819 95.0344 164.056 95.0344 162.293C95.0642 161.801 95.137 161.313 95.2521 160.835C95.4915 159.42 95.7744 158.027 95.9486 156.634C95.9138 156.103 95.7964 155.582 95.6004 155.088H95.2956L94.882 157.112H94.7732L94.0549 154.283H93.859C93.4672 155.915 93.0971 157.548 92.7053 159.18H92.4006C92.6454 157.243 92.2962 155.277 91.3993 153.543H91.0946L91.6605 158.571H91.4864L90.0498 156.59H89.8757V157.896C89.2009 156.329 89.6798 154.348 88.3084 153.02H88.0472C88.5261 155.393 89.005 157.765 89.4621 160.138H89.2662C89.0268 159.137 88.7873 158.114 88.5261 157.112H88.1996L87.9602 158.81C87.3126 157.019 86.3465 155.36 85.1087 153.913L84.7169 154.087C85.4788 155.85 86.2188 157.613 86.8936 159.398H86.7629L84.3904 155.828L84.0204 156.046C84.6081 157.156 85.1957 158.223 85.7617 159.376C84.9781 158.44 84.3033 157.461 83.585 156.525C83.3409 156.288 83.062 156.09 82.7578 155.937C82.7578 156.307 82.6273 156.677 82.5837 157.047C82.5547 157.147 82.5547 157.252 82.5837 157.352C83.215 158.462 83.8462 159.529 84.521 160.682C85.1957 161.836 85.5876 162.206 86.1318 162.99L85.9794 163.142L80.2764 158.223C80.2764 159.246 81.1036 159.768 81.626 160.399C82.848 162.033 84.4661 163.329 86.3276 164.165C86.8995 164.525 87.445 164.925 87.9602 165.362L87.8078 165.558C86.171 165.043 84.6793 164.148 83.4544 162.946L83.302 163.098C83.5197 163.555 83.7591 163.991 83.9768 164.426L83.8462 164.557L79.1228 161.684C79.6234 163.207 80.8641 163.86 81.8872 164.535C82.9102 165.21 84.0639 165.906 85.3481 166.712H83.3673C83.737 166.877 84.1239 167.001 84.521 167.082C86.0446 167.256 87.5684 167.386 89.1138 167.517L90.1369 168.714L88.722 168.366L85.1522 167.582C84.4339 167.408 83.585 167.582 83.1932 166.646C82.2572 166.146 81.343 165.667 80.4288 165.144C79.8847 164.84 79.384 164.491 78.8616 164.165L78.6657 164.383C78.8488 164.766 79.0912 165.119 79.384 165.427C81.5607 166.929 83.4979 168.584 86.3276 168.344C86.7723 168.36 87.2122 168.441 87.6337 168.584V168.932H85.457C85.134 168.942 84.813 168.986 84.4992 169.063C84.1945 169.063 83.9115 169.389 83.6503 169.389C82.8667 169.389 82.1048 169.193 81.343 169.063C80.5812 168.932 80.0806 168.845 79.4711 168.736C79.4711 169.041 79.4711 169.128 79.5799 169.15L84.6298 170.564C85.0321 170.653 85.4391 170.718 85.8488 170.76C86.3929 169.411 88.8308 170.63 90.2022 172.415C89.2483 172.536 88.2828 172.536 87.3289 172.415C86.4675 172.064 85.6554 171.603 84.9128 171.043L84.7604 171.261C85.2175 171.653 85.6529 172.066 86.2406 172.61L80.407 173.372C81.1797 173.837 82.0752 174.058 82.9755 174.004L88.069 173.612C88.2815 173.545 88.5095 173.545 88.722 173.612L91.2687 175.07L84.1945 175.897C84.8049 176.195 85.4744 176.351 86.1535 176.354C87.3071 176.354 88.439 176.202 89.5927 176.115L91.6388 177.726C89.6892 177.298 87.6649 177.35 85.74 177.878C88.3085 178.64 91.1164 178.226 93.4672 179.619L93.0971 179.837L95.4044 181.208L89.9845 182.166V182.384C90.2964 182.515 90.627 182.595 90.964 182.623C92.3571 182.514 93.7284 182.362 95.1215 182.21C95.7745 182.21 96.4057 181.883 97.0587 181.84C98.6042 181.731 100.128 181.687 101.673 181.622C101.869 181.6 102.066 181.6 102.261 181.622V181.753L100.193 182.493V182.797L103.502 182.362C102.019 183.213 100.298 183.549 98.6041 183.32C98.2773 183.234 97.9409 183.19 97.6029 183.189C97.6029 183.189 97.4287 183.385 97.2546 183.581L95.8616 183.233L96.9499 183.973L93.3148 184.8C94.7724 185.44 96.4134 185.525 97.9294 185.039H96.4928L101.151 184.212V184.386L98.9742 184.952C100.628 184.604 101.739 185.649 102.958 186.52H97.69C97.7988 186.715 97.9076 186.824 98.0383 186.846C99.4313 187.107 100.824 187.368 102.239 187.586C103.341 187.793 104.481 187.633 105.482 187.129C106.187 186.886 106.918 186.726 107.659 186.65V186.911L106.419 187.194L109.205 189.371V189.502L105.896 188.239L106.527 187.695C106.34 187.668 106.149 187.668 105.961 187.695C105.281 188.006 104.545 188.177 103.798 188.2C103.05 188.222 102.306 188.095 101.608 187.826L100.324 187.456C99.3229 187.277 98.291 187.454 97.407 187.956C98.0415 188.103 98.6945 188.155 99.3443 188.109C99.8667 188.109 100.52 187.847 100.89 188.109C102.154 188.649 103.52 188.909 104.895 188.87C105.896 188.979 106.897 189.153 107.877 189.306V189.567H105.7L106.179 189.959L105.57 190.22L107.311 190.612L101.477 191.395V191.657C102.617 192.177 103.902 192.285 105.112 191.961C105.66 191.714 106.253 191.586 106.854 191.586C107.454 191.586 108.048 191.714 108.595 191.961C108.595 191.961 108.835 191.961 109.161 191.961L108.29 190.96L108.421 190.786C109.536 192.033 110.987 192.932 112.6 193.376C112.329 193.023 111.997 192.721 111.621 192.484L109.074 190.742L109.248 190.372L113.427 191.374V191.504L111.621 191.308C112.6 192.614 114.146 192.397 115.452 192.984C114.655 193.456 113.756 193.728 112.831 193.777C111.906 193.827 110.983 193.652 110.141 193.267C110.804 193.871 111.534 194.397 112.317 194.835C112.801 195.007 113.307 195.109 113.819 195.139C114.298 195.248 114.799 195.4 115.474 195.596C113.993 196.511 113.449 196.489 112.034 195.226C110.647 194.057 109.031 193.19 107.289 192.68C106.919 192.549 106.527 192.484 106.157 192.375V192.549L108.073 193.659L105.004 192.549L104.873 192.854L111.403 196.706L111.251 197.164C110.811 197.169 110.372 197.118 109.945 197.011C108.182 196.228 106.462 195.313 104.655 194.617C103.419 194.191 102.153 193.857 100.868 193.616C100.571 193.586 100.272 193.586 99.9755 193.616C100.106 193.812 100.128 193.877 100.171 193.877L107.507 196.532C107.824 196.615 108.121 196.763 108.378 196.968C108.573 197.185 108.769 197.664 108.661 197.817C108.552 197.969 108.095 198.1 107.79 198.143C107.485 198.187 107.442 197.991 107.267 197.904L103.241 195.727C103.067 195.653 102.884 195.602 102.696 195.575L102.544 195.901L107.006 198.361C106.661 198.494 106.326 198.654 106.005 198.84C105.374 199.34 104.917 199.275 104.372 198.644C103.132 197.251 101.847 195.879 100.52 194.552C99.7773 193.809 98.8425 193.289 97.8206 193.05L97.6247 193.289L103.328 198.513C102.062 197.775 100.709 197.198 99.3007 196.794L99.1266 197.098L102.849 199.602L101.717 199.819L102.871 200.102C101.935 200.907 101.238 200.472 100.454 199.884C99.6707 199.297 98.2777 198.426 97.2329 197.708C97.0081 197.58 96.8138 197.405 96.6635 197.194C96.5131 196.984 96.4103 196.743 96.3622 196.489C95.9268 195.074 95.4044 193.703 94.882 192.31C94.882 192.048 94.512 191.852 94.3161 191.613L94.0984 191.744C94.5338 193.158 94.9909 194.595 95.5133 196.249C94.4685 195.313 93.4454 194.769 93.1407 193.463C92.8086 192.28 92.3715 191.129 91.8347 190.024C91.6794 189.773 91.4969 189.539 91.2905 189.328L91.0728 189.458C91.987 192.462 92.8794 195.488 93.7719 198.535C92.9357 198.173 92.1922 197.626 91.5967 196.937C91.0012 196.247 90.5691 195.432 90.3327 194.552C89.992 192.819 89.5634 191.104 89.0485 189.415C88.7689 188.71 88.4265 188.033 88.0255 187.39L87.7207 187.521C88.0907 188.849 88.4608 190.198 88.8961 191.678L86.5453 189.153L86.2841 189.328L87.0024 192.114C86.1691 190.253 85.1634 188.475 83.9986 186.803C84.3686 188.348 84.9563 189.806 85.4352 191.308C85.9141 192.81 86.3276 194.29 86.7847 195.879C85.9289 195.632 85.1779 195.11 84.6471 194.394C84.1163 193.679 83.8349 192.809 83.8462 191.918C83.7434 190.492 83.5103 189.078 83.1497 187.695C82.9214 187.016 82.6145 186.366 82.2355 185.758L81.9308 185.888C82.279 188.065 82.6055 190.089 82.9755 192.418C82.2354 191.613 82.3008 190.438 81.2342 190.089C81.8219 191.308 82.4314 192.505 83.0844 193.79C82.1267 193.333 81.1689 193.006 80.9077 191.809C80.6556 190.521 80.3285 189.249 79.9282 188C79.6235 187.102 79.2674 186.223 78.8616 185.366C78.6445 185.058 78.3884 184.78 78.0998 184.539L77.7733 184.735L78.8833 188.544L77.7733 187.564L78.6657 190.851L78.2739 190.982C78.0495 190.588 77.888 190.162 77.795 189.719C77.6484 188.291 77.1634 186.918 76.3801 185.714C76.206 185.388 75.7925 185.192 75.5095 184.909L75.27 185.126C75.7035 185.952 76.0887 186.803 76.4237 187.673C76.6614 188.568 76.8431 189.477 76.9678 190.394C76.6849 189.828 76.3584 189.284 76.119 188.718C75.4442 187.107 74.8347 185.453 74.16 183.842C74.0293 183.559 73.681 183.363 73.4416 183.146L73.1369 183.32C73.8334 185.388 74.5518 187.434 75.3136 189.523L74.7911 189.24C75.164 190.99 75.7718 192.682 76.5978 194.269C75.9652 193.851 75.4305 193.302 75.0306 192.658C74.4864 191.657 74.0729 190.481 73.6158 189.523C73.4852 189.219 73.3545 188.914 73.2457 188.609C72.6145 186.781 72.0268 184.974 71.352 183.167C71.352 182.906 70.9167 182.732 70.6772 182.514L70.3943 182.71L71.635 187.064C70.699 186.302 69.763 185.867 69.4583 184.735C69.197 184.058 68.7879 183.448 68.2611 182.95C68.0434 182.71 67.5646 182.667 67.2163 182.536L67.1074 182.797L67.5428 183.559L64.8654 181.731L66.6939 187.543L66.4109 187.673C66.1278 187.31 65.8868 186.915 65.6926 186.498C65.3863 185.717 65.1318 184.917 64.9307 184.103C64.6216 182.872 63.9461 181.764 62.9935 180.925C62.8039 180.785 62.5898 180.682 62.3623 180.621L62.1664 180.795C63.7775 183.741 64.916 186.921 65.5402 190.22L64.9525 190.046L65.6709 190.96L65.4749 191.112C64.6478 190.655 63.6683 190.372 63.5377 189.175C63.4365 187.898 63.2694 186.626 63.037 185.366C62.6544 183.742 62.1747 182.143 61.6004 180.577C61.3594 180.155 60.9839 179.825 60.5338 179.641C60.1856 179.489 59.859 179.641 59.9679 180.185C60.0767 180.73 60.2291 181.187 60.3379 181.687C60.2128 181.469 60.0747 181.258 59.9244 181.056C59.7067 180.817 59.4455 180.599 59.2061 180.359L59.0755 180.534C59.5108 183.015 59.9462 185.497 60.425 188.13C59.5326 187.782 59.1843 187.347 59.1843 186.607C59.1843 185.867 59.1843 184.8 59.0537 183.908C58.9244 182.19 58.2796 180.551 57.2035 179.206C56.9405 178.954 56.6482 178.735 56.3328 178.553L56.1587 178.749C56.7559 180.006 57.2721 181.3 57.7042 182.623C57.9851 183.989 58.1886 185.37 58.3136 186.759H58.0307C57.742 186.575 57.5008 186.325 57.3268 186.03C57.1528 185.735 57.051 185.403 57.0294 185.061C56.9875 184.251 56.8561 183.448 56.6375 182.667C56.2505 181.408 55.7249 180.196 55.0703 179.054C54.3449 178.011 53.537 177.028 52.6542 176.115C52.5454 175.963 52.3277 175.919 51.9359 175.701C52.2842 177.552 53.2637 179.097 52.5889 181.013L50.9999 178.4L50.5646 179.075C49.5416 176.899 49.5416 176.899 48.7797 177.051C49.1062 178.205 49.4328 179.38 49.8246 180.708C49.3892 180.164 49.0627 179.75 48.7579 179.336L48.562 179.445C49.1715 181.013 50.4775 182.319 50.2816 184.147C50.0341 182.914 49.4459 181.776 48.5838 180.86L48.2573 180.991C48.6709 182.123 49.1062 183.167 49.5633 184.517L48.5838 184.016C47.1472 183.102 45.7106 182.188 44.2304 181.296C43.8604 181.056 43.4904 180.795 42.9897 181.296L44.644 182.645H43.5121C44.8834 183.929 46.7336 184.191 47.8655 185.497L47.7567 185.758L42.5544 183.886V184.103C44.1651 185.845 46.6248 186.171 48.5185 187.477C47.2683 187.662 45.9913 187.512 44.8181 187.042C43.9475 186.672 43.055 186.345 42.1408 186.041C41.7911 185.955 41.4339 185.904 41.0742 185.888V186.15L43.055 187.804ZM63.0806 216.101C62.1882 215.143 61.3392 214.12 60.4685 213.097L60.6427 212.901C61.7092 213.728 62.8194 214.534 63.8207 215.404C63.973 215.535 63.9295 215.948 63.9731 216.231C63.6683 216.101 63.2547 216.101 63.0806 215.927V216.101ZM70.0895 214.142L69.9807 214.316L67.2598 212.335C68.5658 212.226 69.11 213.423 70.0895 213.924V214.142ZM65.4967 212.096L65.6273 211.878C66.4327 212.444 67.2381 213.032 68.0435 213.554C68.8488 214.076 69.763 214.599 70.6119 215.121C68.7039 214.42 66.9621 213.33 65.4967 211.922V212.096ZM71.7221 215.078C71.3303 215.078 70.9602 215.078 70.9819 214.425C70.9819 214.185 70.5248 213.902 70.2419 213.685C69.9589 213.467 69.1318 212.858 68.5658 212.444L68.6964 212.248L72.7451 214.294C72.7669 214.751 72.2009 214.838 71.7221 214.904V215.078ZM72.658 212.335C73.9512 212.275 75.2347 212.585 76.3584 213.228C74.9 213.554 73.8117 212.727 72.658 212.161V212.335ZM76.119 216.014C76.0101 215.491 76.7067 214.73 77.6209 214.359C77.7515 214.882 77.4685 215.187 76.119 215.84V216.014ZM78.1651 214.86C78.1651 214.338 80.0153 213.162 80.973 213.119L78.1651 214.86ZM132.125 192.157L132.909 190.699H133.127V191.134L133.845 190.438C133.692 191.308 133.692 191.308 132.125 191.983V192.157ZM130.754 184.582L130.863 184.365L133.344 185.584L133.192 185.867L130.754 184.582ZM129.187 188V187.717H133.714C133.471 188.046 133.127 188.288 132.735 188.406C132.342 188.524 131.922 188.511 131.537 188.37C131.407 188.37 131.211 188.37 131.146 188.37C130.275 189.023 129.818 188.109 129.187 187.804V188ZM131.494 191.983L130.079 193.833L129.753 193.594L130.384 192.527C129.47 191.94 129.317 193.398 128.534 193.267C128.585 192.948 128.712 192.646 128.904 192.387C129.096 192.127 129.348 191.917 129.637 191.774C129.927 191.631 130.247 191.56 130.57 191.566C130.893 191.572 131.21 191.655 131.494 191.809V191.983ZM116.78 197.36V197.12C118.216 196.685 119.283 195.4 120.894 195.379L121.002 195.683L116.78 197.36ZM116.562 194.116C117.302 193.376 117.541 193.42 118.434 194.53L116.562 194.116ZM124.398 192.179C122.221 193.028 122.004 192.963 120.545 191.091C120.24 190.677 119.957 190.22 119.566 189.654L124.463 192.114C124.445 192.101 124.43 192.085 124.419 192.066C124.407 192.048 124.4 192.027 124.398 192.005V192.179ZM118.238 186.237L126.096 191.395V191.548C125.715 191.493 125.342 191.39 124.986 191.243C123.005 190.133 121.046 189.066 119.109 187.847C118.932 187.791 118.768 187.7 118.627 187.578C118.487 187.457 118.372 187.308 118.291 187.141C118.209 186.975 118.163 186.793 118.154 186.607C118.145 186.422 118.173 186.237 118.238 186.062V186.237ZM120.719 192.767C120.153 193.463 119.675 193.594 119.022 192.897C118.518 192.318 118.12 191.655 117.846 190.938C117.654 190.442 117.53 189.922 117.476 189.393C117.445 189.133 117.445 188.869 117.476 188.609H117.803L120.719 192.767ZM116.366 183.233C116.845 184.212 117.258 185.127 117.694 185.997C118.129 186.868 117.041 187.782 116.997 189.001C116.257 188.236 115.81 187.234 115.735 186.171C115.795 185.122 116.038 184.09 116.453 183.124L116.366 183.233ZM111.904 181.317C113.536 181.448 113.972 182.166 113.493 184.038C113.006 183.762 112.603 183.36 112.327 182.873C112.051 182.386 111.912 181.833 111.926 181.274L111.904 181.317ZM110.881 183.32L111.229 185.497H110.881C110.249 184.887 110.641 184.06 110.554 183.32H110.881ZM110.402 175.331C110.489 175.659 110.54 175.994 110.554 176.333C110.337 177.573 110.097 178.792 109.814 180.011C109.814 180.207 109.422 180.338 109.226 180.49C109.226 180.251 109.052 179.99 109.118 179.794C109.509 178.27 109.923 176.92 110.424 175.223L110.402 175.331ZM102.544 165.406V170.847H102.196C102.065 170.564 101.804 170.281 101.847 170.02C102.109 168.214 102.392 166.363 102.566 165.297L102.544 165.406ZM101.564 170.826C101.869 171.239 101.325 172.785 100.585 173.372C100.911 172.415 101.216 171.587 101.586 170.717L101.564 170.826ZM97.8424 176.159V176.398C96.6452 176.899 95.6656 176.18 94.7514 175.593L97.8424 176.159ZM92.0741 163.316C92.4659 161.771 92.923 160.225 93.3584 158.701H93.7284C93.576 159.812 93.4019 160.878 93.1842 162.315C93.4081 162.634 93.5282 163.014 93.5282 163.403C93.5282 163.793 93.4081 164.173 93.1842 164.491L92.5312 162.881H92.5094V163.926H92.3135C92.2265 163.86 92.0306 163.468 92.0959 163.207L92.0741 163.316ZM94.2508 174.482C92.9012 174.94 92.4877 173.808 91.7041 173.329L91.9 173.002L94.2508 174.482ZM92.0741 164.513L92.9883 166.429L92.5312 166.625L91.6605 164.709L92.0741 164.513ZM93.293 171.457L91.3123 170.739C92.2918 169.998 92.3571 170.042 93.4019 171.348L93.293 171.457ZM89.941 158.571H90.3327C91.2252 160.095 91.3558 161.792 90.3327 162.141C90.3327 160.791 90.1804 159.637 90.0498 158.462L89.941 158.571ZM88.7655 171.022C89.0609 170.888 89.3799 170.815 89.7039 170.807C90.0278 170.798 90.3502 170.854 90.6521 170.972C90.9541 171.09 91.2297 171.266 91.4626 171.491C91.6955 171.717 91.8812 171.986 92.0088 172.284L91.9 172.523L88.7655 171.022ZM89.7015 173.503C90.8334 173.155 91.5517 173.503 92.3788 174.744C91.877 174.725 91.3856 174.595 90.941 174.361C90.4964 174.128 90.1101 173.797 89.8104 173.394L89.7015 173.503ZM90.4851 176.746L89.375 176.202C90.6014 176.031 91.8373 175.937 93.0754 175.919C93.9097 176.034 94.7278 176.246 95.5133 176.55L95.4044 176.942L91.5735 176.028V176.289L94.599 177.486C93.2057 177.683 91.7877 177.382 90.5939 176.637L90.4851 176.746ZM93.2277 178.422H95.0344C95.6003 178.422 96.1881 178.422 96.8193 178.27C96.3222 178.654 95.7135 178.866 95.0852 178.874C94.457 178.882 93.8432 178.685 93.3366 178.313L93.2277 178.422ZM94.2943 179.815C95.6989 179.349 97.2037 179.274 98.6477 179.598C98.3986 179.919 98.0813 180.18 97.7187 180.364C97.3562 180.547 96.9574 180.648 96.5512 180.658C96.145 180.668 95.7416 180.588 95.3701 180.424C94.9986 180.259 94.6684 180.014 94.4031 179.707L94.2943 179.815ZM98.3212 172.785C97.7988 173.002 97.4723 173.264 97.1893 173.198C96.9063 173.133 96.9063 172.676 96.7757 172.393H97.69L96.5363 170.216L100.89 175.31C100.89 175.31 100.89 175.506 100.89 175.788L99.5619 174.374L99.366 174.896C99.0395 173.873 99.1919 172.85 98.43 172.676L98.3212 172.785ZM99.3878 176.354C100.65 177.704 101.891 179.075 103.153 180.447C101.599 179.378 100.341 177.932 99.4966 176.246L99.3878 176.354ZM103.023 178.531L101.782 176.681L102.065 176.485L103.393 178.27L103.023 178.531ZM101.369 185.061C101.678 184.832 102.042 184.69 102.425 184.648C102.807 184.606 103.194 184.666 103.545 184.822C104.264 185.083 104.938 185.431 105.591 185.736C104.372 186.737 102.979 186.541 101.477 184.974L101.369 185.061ZM107.028 181.339C107.028 179.815 105.874 179.162 105.047 178.183H104.808V179.728H104.612C104.285 178.771 103.981 177.835 103.632 176.79C103.899 176.844 104.156 176.94 104.394 177.073C105.417 177.878 106.397 178.662 107.376 179.511C107.558 179.735 107.672 180.007 107.703 180.294C107.703 180.294 107.485 180.49 107.224 180.73L108.791 181.404V181.579L108.269 181.448L108.138 182.384C107.863 182.357 107.608 182.228 107.423 182.023C107.237 181.817 107.135 181.55 107.137 181.274L107.028 181.339ZM107.681 187.869C108.465 187.543 108.465 187.543 111.055 188.74C110.119 189.371 109.009 189.066 107.746 187.804L107.681 187.869ZM112.034 190.372L110.641 189.719L110.837 189.371L112.165 190.089L112.034 190.372ZM113.297 185.888L112.47 187.477L112.753 184.495C113.885 185.91 115.343 186.977 115.191 188.849C114.799 187.804 114.733 186.52 113.449 185.736L113.297 185.888ZM114.146 190.481L114.472 190.155L116.127 191.918L115.909 192.157L114.146 190.481ZM109.161 208.112C108.9 208.787 108.617 209.484 108.334 210.158C108.312 209.898 108.312 209.636 108.334 209.375L110.75 201.8C110.75 201.691 110.75 201.582 110.75 201.365L110.032 201.539V201.43L112.208 200.167C111.338 202.605 110.337 205.217 109.313 207.96L109.161 208.112ZM111.926 204.564H111.643L112.818 201.299L113.123 201.408L111.926 204.564ZM113.536 198.187L113.754 198.404C113.515 198.644 113.275 199.079 113.014 199.101C111.357 199.401 109.779 200.038 108.378 200.973C108.074 201.018 107.766 201.018 107.463 200.973V200.733L113.536 198.187ZM79.4711 201.452C80.4397 200.615 81.6984 200.193 82.9755 200.276L81.6913 201.299L82.3008 201.648C81.9586 201.658 81.6204 201.724 81.2995 201.843C80.9998 201.956 80.6708 201.963 80.3664 201.864C80.062 201.765 79.8 201.566 79.6234 201.299L79.4711 201.452ZM80.9512 202.627L82.3225 201.648L83.1061 201.931C81.9089 202.736 81.626 202.845 81.1036 202.475L80.9512 202.627ZM83.1279 201.517C84.3686 200.712 85.3046 200.646 86.197 201.365C85.2175 201.822 84.238 202.214 83.1932 201.365L83.1279 201.517ZM88.6349 202.431C89.9627 203.367 91.3993 204.151 92.8577 205.021C91.7476 205.544 91.7476 205.479 90.8769 204.651C90.4435 204.367 89.9532 204.182 89.4403 204.107L86.0012 203.041C85.6653 202.926 85.338 202.788 85.0216 202.627C85.5064 202.164 86.133 201.878 86.8005 201.815C87.4679 201.751 88.1372 201.915 88.7002 202.279L88.6349 202.431ZM83.4326 205.13C83.0201 204.681 82.5344 204.306 81.9961 204.02L82.1266 203.846L86.48 206.48C85.8901 206.553 85.2919 206.449 84.7611 206.181C84.2303 205.914 83.7906 205.495 83.4979 204.978L83.4326 205.13ZM82.1049 211.813L81.909 211.53L83.4544 210.463L83.6068 210.659L82.1049 211.813ZM83.215 207.612C84.151 207.612 84.9781 207.481 85.544 208.308C84.5863 208.7 84.1292 208.569 83.2803 207.394L83.215 207.612ZM84.9128 214.947C84.8097 213.575 85.1952 212.21 86.0012 211.094C86.317 211.729 86.3872 212.457 86.1984 213.141C86.0095 213.824 85.5749 214.413 84.9781 214.795L84.9128 214.947ZM85.7835 207.133L87.9602 207.438C86.6759 208.069 86.6759 208.069 85.8488 206.98L85.7835 207.133ZM86.8936 212.509C86.5236 210.441 86.6106 210.333 88.2214 209.941L86.8936 212.509ZM87.5031 206.284C85.8053 205.37 84.1509 204.412 82.3443 203.411C83.0626 203.084 83.4761 202.431 84.3904 203.193C85.4892 203.945 86.655 204.593 87.8731 205.13V205.348L87.3071 205.479C88.2213 205.87 89.375 205.479 90.1586 206.371C89.7529 206.596 89.2886 206.694 88.8265 206.651C88.3644 206.608 87.926 206.427 87.5684 206.132L87.5031 206.284ZM89.4185 213.576C89.4185 212.379 89.4185 211.399 89.4185 210.202C89.407 209.904 89.5012 209.612 89.6844 209.377C89.8677 209.142 90.1282 208.979 90.4198 208.918C90.6204 210.482 90.2908 212.068 89.4838 213.423L89.4185 213.576ZM90.6592 207.655L93.1407 206.132C93.1407 206.502 93.2713 206.85 93.1407 206.893C92.3789 207.307 91.5952 207.677 90.8116 208.047L90.6592 207.655ZM92.0306 209.549H91.8129L91.5082 208.352L92.4877 207.938L92.0306 209.549ZM97.3417 214.468C96.6789 214.575 96.0243 214.728 95.3827 214.925C95.731 212.858 96.0357 210.899 96.4057 208.961C96.4057 208.635 96.9064 208.374 97.1676 208.091L97.3852 208.243C97.4484 210.42 96.8569 212.566 95.6874 214.403L95.9051 214.555L98.4953 212.814C98.5606 213.576 98.3647 214.207 97.407 214.316L97.3417 214.468ZM94.9255 209.484C94.8355 209.205 94.8026 208.911 94.8288 208.62C94.8549 208.328 94.9396 208.045 95.0778 207.787C95.216 207.529 95.4048 207.301 95.633 207.118C95.8612 206.934 96.124 206.799 96.4057 206.719L94.9255 209.484ZM98.0818 216.623C98.4518 214.991 99.9537 215.578 100.89 215.012V215.208L98.0818 216.623ZM101.042 214.229L100.868 213.989L102.914 212.357L103.132 212.596L101.042 214.229ZM103.349 214.229C103.763 213.097 104.111 212.205 104.503 211.138C104.565 211.681 104.496 212.23 104.303 212.741C104.11 213.252 103.798 213.71 103.393 214.076L103.349 214.229ZM101.76 210.724V209.941L103.153 209.331L104.481 208.744L104.612 209.005L101.76 210.724ZM104.503 208.417L105.243 206.719L105.504 206.828C105.57 207.242 105.831 208.003 104.568 208.265L104.503 208.417ZM104.677 207.002C104.585 207.14 104.504 207.286 104.438 207.438C103.981 208.809 103.763 208.983 102.261 209.005C104.024 208.33 104.438 206.545 105.678 205.283L104.677 207.002ZM102.348 206.023C102.707 205.428 103.155 204.892 103.676 204.434C103.981 204.194 104.59 204.434 105.047 204.325V204.586L102.305 208.569C102.016 208.173 101.87 207.691 101.89 207.201C101.909 206.711 102.094 206.242 102.413 205.87L102.348 206.023ZM104.938 202.584C104.629 202.662 104.35 202.829 104.133 203.062L105.352 203.476C104.612 204.129 103.937 203.215 103.458 203.628L101.978 205.674C101.238 204.804 101.238 204.804 102.762 203.65L102.13 203.324L103.654 203.084C103.654 202.453 103.654 202.453 105.678 202.279L104.938 202.584ZM105.678 201.169C105.134 201.669 104.764 202.148 104.068 201.952C103.371 201.756 102.631 202.475 101.891 202.823L100.781 203.324L100.65 202.975C102.154 201.9 103.907 201.226 105.744 201.016L105.678 201.169ZM100.629 211.094C100.52 209.157 100.411 207.068 100.302 205C100.834 205.888 101.147 206.89 101.215 207.924C101.283 208.957 101.104 209.991 100.694 210.942L100.629 211.094ZM101.238 212.096L101.652 212.836L99.0177 214.577C99.0988 213.976 99.3482 213.409 99.7372 212.943C100.126 212.477 100.639 212.131 101.216 211.943L101.238 212.096ZM99.649 210.55C99.649 211.769 98.7348 212.313 97.6029 212.727C97.6029 212.379 97.6029 212.139 97.6029 211.9C97.8206 210.528 98.0818 209.157 98.2124 207.764C98.263 207.324 98.4102 206.901 98.6435 206.525C98.8768 206.148 99.1904 205.828 99.5619 205.587C99.7143 207.394 99.7578 208.874 99.7143 210.398L99.649 210.55ZM96.6234 198.948L99.5619 201.125V201.408C99.1998 201.548 98.8177 201.629 98.43 201.648C97.0587 201.169 96.5363 200.276 96.6887 198.796L96.6234 198.948ZM97.407 203.411C96.8411 204.107 96.3839 204.151 95.8833 203.411H97.407ZM95.2303 199.231C96.2533 199.014 96.1228 199.71 96.2098 200.363C95.1215 200.211 94.6208 199.297 93.9243 196.423C95.3391 197.098 95.9269 198.317 95.1868 199.079L95.2303 199.231ZM95.4262 209.701C95.1215 211.356 94.9038 212.988 94.4902 214.577C94.3814 214.925 93.5542 215.1 92.9012 215.426C92.7407 214.316 92.8871 213.184 93.3246 212.152C93.762 211.12 94.4738 210.227 95.3827 209.571L95.4262 209.701ZM93.4672 203.628V203.846C93.2734 203.846 93.0814 203.809 92.9012 203.737C91.4646 202.932 90.028 202.126 88.5478 201.299C88.5478 201.299 88.5479 200.951 88.4172 200.755L92.4006 202.932C92.7054 203.041 93.0536 203.258 93.4237 203.476L93.4672 203.628ZM92.2047 200.625C90.8334 200.625 89.6579 201.408 88.3955 200.755C88.9529 200.406 89.5872 200.197 90.2433 200.148C90.8995 200.098 91.5577 200.21 92.1612 200.472L92.2047 200.625ZM88.1561 192.005L90.1804 197.534H89.8757C88.9085 195.813 88.2319 193.945 87.8731 192.005H88.1561ZM87.1983 194.464C87.503 195.161 87.8295 195.836 88.1343 196.532L87.8296 196.663C87.5466 195.966 87.2854 195.248 87.0024 194.486L87.1983 194.464ZM86.8718 200.559L86.7194 200.864L85.2828 200.146L85.4787 199.797L86.8718 200.559ZM86.1535 198.557C85.0665 199.364 83.7079 199.715 82.3661 199.536C82.882 199.082 83.498 198.757 84.1639 198.586C84.8298 198.416 85.5265 198.406 86.197 198.557H86.1535ZM80.037 192.767L83.7592 195.727C82.5185 195.901 82.5619 195.879 82.0178 195.052C81.6271 194.534 81.182 194.06 80.69 193.637L79.8847 192.963L80.037 192.767ZM78.9486 192.353C79.2341 192.658 79.4496 193.022 79.5799 193.42L79.7758 195.139C79.3622 194.835 78.9922 194.682 78.8616 194.399C78.731 194.116 78.3827 193.137 78.0998 192.549C77.8168 191.961 77.4685 191.635 77.1855 191.178C77.0686 190.925 76.9739 190.663 76.9025 190.394C77.6208 191.047 78.3392 191.678 78.9922 192.353H78.9486ZM76.3584 190.764L77.708 194.464C77.1203 194.203 76.4019 192.157 76.4019 190.764H76.3584ZM50.4993 195.117C50.9297 194.236 51.5731 193.476 52.3713 192.906C53.1694 192.336 54.097 191.974 55.0703 191.852C53.8343 193.271 52.284 194.382 50.5428 195.096L50.4993 195.117ZM53.9603 185.497C55.0051 185.888 55.7887 186.389 55.5928 187.673C55.2445 186.824 53.8514 186.759 54.0038 185.475L53.9603 185.497ZM62.7758 196.184L62.5581 195.858L63.886 195.03L64.0819 195.357L62.7758 196.184ZM64.9525 198.361C65.2137 198.208 65.4096 198.056 65.6273 197.947C66.8357 197.431 67.8976 196.623 68.7182 195.596C68.9479 195.395 69.2042 195.227 69.4801 195.096C69.0801 195.966 68.4601 196.717 67.6814 197.274C66.9027 197.831 65.9922 198.176 65.0396 198.274L64.9525 198.361ZM68.9141 198.078L68.7617 197.817C69.5671 197.207 70.3507 196.554 71.1779 195.988C71.3303 195.879 71.6785 195.988 71.9397 195.988V196.249L68.9141 198.078ZM72.4839 192.527L73.8988 193.855C72.9192 193.899 72.5709 193.529 72.5709 192.44L72.4839 192.527ZM73.6593 192.527L73.3328 192.701L71.3085 189.502L71.5697 189.328C72.9192 189.981 72.9192 191.439 73.7464 192.44L73.6593 192.527ZM71.0255 184.212L73.3981 190.459C71.8309 188.5 71.8091 186.171 71.1126 184.125L71.0255 184.212ZM71.7438 188.674C70.2201 188.674 69.9589 188.457 69.8283 186.781L71.7438 188.674ZM70.4595 191.221C69.1753 190.263 67.6081 189.654 67.434 187.673C67.2655 186.674 66.9882 185.696 66.6068 184.756C68.9794 186.084 69.2624 188.892 70.5466 191.134L70.4595 191.221ZM65.3879 187.586C66.0127 188.072 66.5291 188.683 66.904 189.38C67.2788 190.078 67.5038 190.846 67.5646 191.635C66.6286 191.635 66.3456 191.417 66.215 190.546C66.0844 189.676 66.0627 189.066 65.9321 188.37C65.8362 188.053 65.681 187.758 65.4749 187.499L65.3879 187.586ZM67.5646 193.92L65.6709 194.094V193.768H67.5646V193.92ZM67.2163 195.03C67.2059 195.481 67.0753 195.92 66.838 196.303C66.6007 196.685 66.2654 196.998 65.8668 197.207C65.0832 197.664 64.3213 198.252 63.4506 197.686C63.8206 197.36 64.1907 197.011 64.6042 196.706C65.4498 196.072 66.3291 195.483 67.2381 194.943L67.2163 195.03ZM64.8437 193.137L62.0576 194.639C62.0992 194.329 62.212 194.033 62.3871 193.774C62.5622 193.515 62.7948 193.301 63.0668 193.147C63.3388 192.993 63.6427 192.904 63.9547 192.887C64.2668 192.87 64.5785 192.926 64.8654 193.05L64.8437 193.137ZM60.1856 182.797C60.1528 182.421 60.1528 182.042 60.1856 181.666L60.8603 184.321H60.9692L60.6644 182.275H60.8386L62.5799 187.412L62.1229 186.846H61.9487C62.1446 187.76 62.3623 188.696 62.5799 189.719C61.6875 189.132 60.9692 188.674 61.1215 187.543C61.1337 185.888 60.8232 184.246 60.2074 182.71L60.1856 182.797ZM62.9064 194.508L63.0806 194.726C62.24 195.708 61.1605 196.458 59.9462 196.902L59.8591 196.511L62.9064 194.508ZM59.9897 193.833C59.1867 194.945 58.0003 195.721 56.6593 196.01L59.8373 193.529L59.9897 193.833ZM56.7246 186.803L59.772 188.979L59.6632 189.219L57.4865 188.174L58.096 189.567C57.443 189.327 56.8335 189.197 56.877 188.261C56.8319 187.798 56.6831 187.352 56.4417 186.955L56.7246 186.803ZM58.096 192.157L55.2009 193.333C56.1151 191.7 56.7029 191.439 58.1177 192.157H58.096ZM55.9193 185.627C54.918 184.713 53.5902 184.234 53.5467 182.623C53.5031 181.013 53.3943 179.902 53.329 178.553C54.9075 180.593 55.8467 183.054 56.0281 185.627H55.9193ZM53.0242 185.888L53.5902 187.651C52.9807 187.303 52.8501 186.955 53.1331 185.801L53.0242 185.888ZM52.7848 189.523H50.7605C51.1523 188.74 51.9794 188.631 52.8936 189.436L52.7848 189.523ZM51.7618 186.89C51.6312 186.694 51.3482 186.52 51.37 186.324C51.4541 184.264 51.1967 182.205 50.6081 180.229C51.8552 182.178 52.3071 184.531 51.8706 186.803L51.7618 186.89ZM53.4378 190.198L49.0844 192.07C49.4287 191.228 50.0866 190.554 50.9193 190.188C51.7519 189.822 52.6941 189.795 53.5467 190.111L53.4378 190.198ZM47.9744 189.001V189.219L44.1434 189.719V189.502L47.9744 189.001Z" fill="white"/>
<path d="M17.1951 36.8936C17.1951 37.1983 16.9992 37.5465 16.9121 37.8948C17.9569 38.3519 19.0888 38.7872 20.003 39.1573C20.9729 39.4359 21.976 39.5824 22.9851 39.5926C23.4191 39.5607 23.8491 39.4878 24.2693 39.3749V39.1355C21.8517 38.5909 19.4851 37.8409 17.1951 36.8936Z" fill="white"/>
<path d="M16.542 68.7169V36.0665L50.912 1.69653H106.048L140.396 35.9794V65.06" stroke="white" stroke-width="1.48" stroke-miterlimit="10"/>
<path d="M140.396 150.8V183.908L106.048 218.277H50.912L16.542 183.973V150.8" stroke="white" stroke-width="1.48" stroke-miterlimit="10"/>
</svg>
